<svg width="22" height="22" viewBox="0 0 22 22" fill="none" xmlns="http://www.w3.org/2000/svg">
<path d="M3.30235 10.9998C3.26989 10.7384 3.13668 10.5 2.93108 10.3354C2.72547 10.1708 2.46372 10.0929 2.20157 10.1184H1.10078C0.838423 10.0919 0.576135 10.1694 0.370295 10.3342C0.164455 10.499 0.0314974 10.738 0 10.9998C0.0324378 11.2609 0.165797 11.4989 0.371531 11.6629C0.577265 11.8269 0.839025 11.9039 1.10078 11.8773H2.20157C2.46312 11.9028 2.72435 11.8255 2.92985 11.6617C3.13535 11.4979 3.26896 11.2605 3.30235 10.9998Z" fill="white"/>
<path d="M3.67059 17.0838L2.88711 17.8673C2.68351 18.0338 2.55313 18.2733 2.52384 18.5346C2.49456 18.796 2.5687 19.0584 2.73042 19.2658C2.93781 19.4275 3.20024 19.5017 3.46159 19.4724C3.72294 19.4431 3.96246 19.3127 4.12892 19.1091L4.9124 18.3257C5.11626 18.1585 5.24674 17.9183 5.27602 17.6563C5.30529 17.3943 5.23104 17.1313 5.06909 16.9232C4.86122 16.762 4.59848 16.6885 4.3371 16.7185C4.07573 16.7485 3.83649 16.8796 3.67059 17.0838Z" fill="white"/>
<path d="M3.66666 4.91234C3.83311 5.11595 4.07263 5.24633 4.33398 5.27562C4.59533 5.3049 4.85777 5.23075 5.06516 5.06904C5.2259 4.86128 5.29944 4.59909 5.2702 4.33804C5.24095 4.07698 5.1112 3.83757 4.90846 3.67054L4.12499 2.88706C3.95795 2.68432 3.71854 2.55458 3.45749 2.52533C3.19643 2.49608 2.93425 2.56962 2.72649 2.73037C2.56454 2.93839 2.49029 3.20145 2.51956 3.46345C2.54883 3.72545 2.67932 3.96564 2.88318 4.13279L3.66666 4.91234Z" fill="white"/>
<path d="M18.3294 4.9124L19.1129 4.12892C19.3156 3.96188 19.4454 3.72247 19.4746 3.46142C19.5039 3.20037 19.4303 2.93818 19.2696 2.73042C19.0622 2.5687 18.7998 2.49456 18.5384 2.52384C18.2771 2.55313 18.0376 2.68351 17.8711 2.88711L17.0876 3.67059C16.8849 3.83762 16.7551 4.07703 16.7259 4.33809C16.6966 4.59914 16.7702 4.86133 16.9309 5.06909C17.1387 5.22984 17.4009 5.30338 17.6619 5.27413C17.923 5.24488 18.1624 5.11514 18.3294 4.9124Z" fill="white"/>
<path d="M11 3.30235C11.2611 3.26991 11.4992 3.13655 11.6632 2.93082C11.8272 2.72508 11.9041 2.46332 11.8775 2.20157V1.10078C11.9041 0.839025 11.8272 0.577265 11.6632 0.371531C11.4992 0.165797 11.2611 0.0324378 11 0C10.7382 0.0314974 10.4992 0.164455 10.3344 0.370295C10.1696 0.576135 10.0921 0.838423 10.1186 1.10078V2.20157C10.0921 2.46392 10.1696 2.72621 10.3344 2.93205C10.4992 3.13789 10.7382 3.27085 11 3.30235Z" fill="white"/>
<path d="M18.3294 17.0877C18.2572 16.9737 18.1603 16.8774 18.0458 16.8059C17.9314 16.7343 17.8023 16.6895 17.6682 16.6745C17.5341 16.6595 17.3984 16.6749 17.271 16.7194C17.1436 16.764 17.0278 16.8366 16.9323 16.9318C16.8367 17.0271 16.7637 17.1426 16.7188 17.2699C16.6739 17.3971 16.6581 17.5328 16.6726 17.667C16.6871 17.8012 16.7316 17.9303 16.8028 18.045C16.8739 18.1597 16.9699 18.2569 17.0837 18.3295L17.8672 19.1129C17.9391 19.2278 18.0359 19.3249 18.1505 19.3971C18.2652 19.4693 18.3946 19.5148 18.5292 19.53C18.6638 19.5453 18.8002 19.53 18.9281 19.4853C19.0559 19.4406 19.1721 19.3677 19.2679 19.2719C19.3637 19.1761 19.4367 19.0599 19.4814 18.932C19.5261 18.8041 19.5413 18.6678 19.5261 18.5332C19.5108 18.3986 19.4654 18.2692 19.3931 18.1545C19.3209 18.0399 19.2238 17.943 19.109 17.8711L18.3294 17.0877Z" fill="white"/>
<path d="M20.8993 10.1184H19.822C19.5596 10.0919 19.2973 10.1694 19.0915 10.3342C18.8856 10.499 18.7527 10.738 18.7212 10.9998C18.7536 11.2609 18.887 11.4989 19.0927 11.6629C19.2985 11.8269 19.5602 11.9039 19.822 11.8773H20.8993C21.161 11.9039 21.4228 11.8269 21.6285 11.6629C21.8342 11.4989 21.9676 11.2609 22 10.9998C21.9676 10.7384 21.8344 10.5 21.6288 10.3354C21.4232 10.1708 21.1614 10.0929 20.8993 10.1184Z" fill="white"/>
<path d="M11 4.95169C9.8037 4.95169 8.6343 5.30643 7.63964 5.97104C6.64498 6.63565 5.86974 7.58028 5.41195 8.68549C4.95416 9.79069 4.83438 11.0068 5.06776 12.1801C5.30114 13.3534 5.8772 14.4311 6.72309 15.277C7.56897 16.1229 8.6467 16.6989 9.81998 16.9323C10.9933 17.1657 12.2094 17.0459 13.3146 16.5881C14.4198 16.1303 15.3644 15.3551 16.0291 14.3604C16.6937 13.3658 17.0484 12.1964 17.0484 11.0001C17.051 10.2051 16.8963 9.41743 16.5933 8.68243C16.2902 7.94743 15.8448 7.27963 15.2826 6.71747C14.7205 6.1553 14.0527 5.70988 13.3177 5.40683C12.5827 5.10379 11.795 4.9491 11 4.95169ZM11 15.3993C9.83323 15.3993 8.71427 14.9358 7.88926 14.1108C7.06424 13.2858 6.60076 12.1669 6.60076 11.0001C6.60076 9.83337 7.06424 8.71442 7.88926 7.88941C8.71427 7.06439 9.83323 6.60091 11 6.60091V15.3993Z" fill="white"/>
<path d="M11 18.6978C10.7382 18.7293 10.4992 18.8622 10.3344 19.068C10.1696 19.2739 10.0921 19.5362 10.1186 19.7985V20.8993C10.0921 21.1617 10.1696 21.424 10.3344 21.6298C10.4992 21.8356 10.7382 21.9686 11 22.0001C11.2611 21.9677 11.4992 21.8343 11.6632 21.6286C11.8272 21.4228 11.9041 21.1611 11.8775 20.8993V19.7985C11.9041 19.5368 11.8272 19.275 11.6632 19.0693C11.4992 18.8636 11.2611 18.7302 11 18.6978Z" fill="white"/>
</svg>
