<svg width="18" height="19" viewBox="0 0 18 19" fill="none" xmlns="http://www.w3.org/2000/svg">
<path d="M2.12045 3.24078L2.74108 2.62015C2.91487 2.44655 3.03325 2.22529 3.08122 1.98438C3.1292 1.74347 3.10462 1.49374 3.01059 1.26681C2.91656 1.03988 2.75731 0.84595 2.55301 0.709571C2.3487 0.573192 2.10853 0.500498 1.86289 0.500692C1.69983 0.500563 1.53835 0.532561 1.38767 0.594858C1.23699 0.657155 1.10005 0.748529 0.984694 0.863761L0.364063 1.48439C0.131151 1.7173 0.000303043 2.0332 0.000303043 2.36259C0.000303043 2.69197 0.131151 3.00787 0.364063 3.24078C0.596974 3.47369 0.91287 3.60454 1.24226 3.60454C1.57164 3.60454 1.88754 3.47369 2.12045 3.24078Z" fill="#FFFEFE"/>
<path d="M0.364046 10.6884C0.479326 10.8038 0.616223 10.8953 0.76691 10.9578C0.917597 11.0203 1.07912 11.0524 1.24224 11.0524C1.40536 11.0524 1.56688 11.0203 1.71757 10.9578C1.86826 10.8953 2.00515 10.8038 2.12043 10.6884L10.1886 2.62015C10.4216 2.38724 10.5524 2.07134 10.5524 1.74195C10.5524 1.41257 10.4216 1.09667 10.1886 0.86376C9.95573 0.630848 9.63984 0.5 9.31045 0.5C8.98106 0.5 8.66517 0.630848 8.43225 0.86376L0.364046 8.93197C0.248638 9.04725 0.157084 9.18415 0.094618 9.33483C0.0321523 9.48552 0 9.64704 0 9.81016C0 9.97328 0.0321523 10.1348 0.094618 10.2855C0.157084 10.4362 0.248638 10.5731 0.364046 10.6884Z" fill="#FFFEFE"/>
<path d="M0.364046 18.1359C0.479326 18.2513 0.616223 18.3429 0.76691 18.4054C0.917597 18.4678 1.07912 18.5 1.24224 18.5C1.40536 18.5 1.56688 18.4678 1.71757 18.4054C1.86826 18.3429 2.00515 18.2513 2.12043 18.1359L17.6362 2.62015C17.8691 2.38724 18 2.07134 18 1.74195C18 1.41257 17.8691 1.09667 17.6362 0.86376C17.4033 0.630848 17.0874 0.5 16.758 0.5C16.4286 0.5 16.1127 0.630848 15.8798 0.86376L0.364046 16.3795C0.248638 16.4948 0.157084 16.6317 0.094618 16.7824C0.0321523 16.9331 0 17.0946 0 17.2577C0 17.4209 0.0321523 17.5824 0.094618 17.7331C0.157084 17.8838 0.248638 18.0207 0.364046 18.1359Z" fill="#FFFEFE"/>
<path d="M15.8799 15.7589L15.2592 16.3795C15.0263 16.6125 14.8955 16.9283 14.8955 17.2577C14.8955 17.5871 15.0263 17.903 15.2592 18.1359C15.4921 18.3688 15.808 18.4997 16.1374 18.4997C16.4668 18.4997 16.7827 18.3688 17.0156 18.1359L17.6362 17.5153C17.8692 17.2824 18 16.9665 18 16.6371C18 16.3077 17.8692 15.9918 17.6362 15.7589C17.4033 15.526 17.0874 15.3951 16.7581 15.3951C16.4287 15.3951 16.1128 15.526 15.8799 15.7589Z" fill="#FFFEFE"/>
<path d="M8.68981 18.499C8.85287 18.4991 9.01435 18.4671 9.16503 18.4048C9.31571 18.3425 9.45265 18.2512 9.56801 18.1359L17.6362 10.0677C17.8691 9.83481 18 9.51891 18 9.18953C18 8.86014 17.8691 8.54424 17.6362 8.31133C17.4033 8.07842 17.0874 7.94757 16.758 7.94757C16.4286 7.94757 16.1127 8.07842 15.8798 8.31133L7.81162 16.3795C7.63783 16.5531 7.51945 16.7744 7.47148 17.0153C7.4235 17.2562 7.44809 17.5059 7.54211 17.7329C7.63614 17.9598 7.79539 18.1537 7.9997 18.2901C8.204 18.4265 8.44417 18.4992 8.68981 18.499Z" fill="#FFFEFE"/>
</svg>
