<svg width="23" height="23" viewBox="0 0 23 23" fill="none" xmlns="http://www.w3.org/2000/svg">
<g id="Frame" clip-path="url(#clip0_372_1664)">
<g id="Group">
<path id="Vector" d="M11.5001 0C12.1352 0 12.6501 0.51488 12.6501 1.15001H16.1001C16.1001 0.51488 16.6149 0 17.2501 0C17.8852 0 18.4001 0.51488 18.4001 1.15001C20.9406 1.15001 23.0001 3.2095 23.0001 5.75003V5.75472C22.9623 5.75161 22.9239 5.75003 22.8851 5.75003H0.115C0.0762337 5.75003 0.0378812 5.75161 0 5.75472V5.75003C0 3.2095 2.0595 1.15001 4.60002 1.15001C4.60002 0.51488 5.1149 0 5.75003 0C6.38515 0 6.90003 0.51488 6.90003 1.15001H10.35C10.35 0.51488 10.8649 0 11.5001 0Z" fill="#BCBCBC"/>
<path id="Vector_2" fill-rule="evenodd" clip-rule="evenodd" d="M0 8.04541V18.4001C0 20.9406 2.0595 23.0002 4.60002 23.0002H18.4001C20.9406 23.0002 23.0001 20.9406 23.0001 18.4001V8.04541C22.9623 8.04852 22.9239 8.0501 22.8851 8.0501H0.115C0.0762337 8.0501 0.0378812 8.04852 0 8.04541ZM8.05004 12.6501C8.05004 13.2853 7.53516 13.8001 6.90003 13.8001C6.26491 13.8001 5.75003 13.2853 5.75003 12.6501C5.75003 12.015 6.26491 11.5001 6.90003 11.5001C7.53516 11.5001 8.05004 12.015 8.05004 12.6501ZM6.90003 18.4001C7.53516 18.4001 8.05004 17.8853 8.05004 17.2501C8.05004 16.615 7.53516 16.1001 6.90003 16.1001C6.26491 16.1001 5.75003 16.615 5.75003 17.2501C5.75003 17.8853 6.26491 18.4001 6.90003 18.4001ZM17.2501 12.6501C17.2501 13.2853 16.7352 13.8001 16.1001 13.8001C15.4649 13.8001 14.9501 13.2853 14.9501 12.6501C14.9501 12.015 15.4649 11.5001 16.1001 11.5001C16.7352 11.5001 17.2501 12.015 17.2501 12.6501ZM11.5001 13.8001C12.1352 13.8001 12.6501 13.2853 12.6501 12.6501C12.6501 12.015 12.1352 11.5001 11.5001 11.5001C10.8649 11.5001 10.35 12.015 10.35 12.6501C10.35 13.2853 10.8649 13.8001 11.5001 13.8001ZM12.6501 17.2501C12.6501 17.8853 12.1352 18.4001 11.5001 18.4001C10.8649 18.4001 10.35 17.8853 10.35 17.2501C10.35 16.615 10.8649 16.1001 11.5001 16.1001C12.1352 16.1001 12.6501 16.615 12.6501 17.2501ZM16.1001 18.4001C16.7352 18.4001 17.2501 17.8853 17.2501 17.2501C17.2501 16.615 16.7352 16.1001 16.1001 16.1001C15.4649 16.1001 14.9501 16.615 14.9501 17.2501C14.9501 17.8853 15.4649 18.4001 16.1001 18.4001Z" fill="#BCBCBC"/>
</g>
</g>
<defs>
<clipPath id="clip0_372_1664">
<rect width="23" height="23" fill="white"/>
</clipPath>
</defs>
</svg>
