<svg width="14" height="14" viewBox="0 0 14 14" fill="none" xmlns="http://www.w3.org/2000/svg">
<g id="Frame" clip-path="url(#clip0_818_369)">
<g id="Group">
<path id="Vector" d="M7.00003 0C7.38664 0 7.70004 0.313405 7.70004 0.700003H9.80005C9.80005 0.313405 10.1134 0 10.5 0C10.8867 0 11.2001 0.313405 11.2001 0.700003C12.7464 0.700003 14.0001 1.95361 14.0001 3.50002V3.50287C13.977 3.50098 13.9537 3.50002 13.9301 3.50002H0.0700003C0.0464031 3.50002 0.0230581 3.50098 0 3.50287V3.50002C0 1.95361 1.25361 0.700003 2.80001 0.700003C2.80001 0.313405 3.11342 0 3.50002 0C3.88661 0 4.20002 0.313405 4.20002 0.700003H6.30003C6.30003 0.313405 6.61342 0 7.00003 0Z" fill="#D1D1D1"/>
<path id="Vector_2" fill-rule="evenodd" clip-rule="evenodd" d="M0 4.89716V11.2C0 12.7464 1.25361 14.0001 2.80001 14.0001H11.2001C12.7464 14.0001 14.0001 12.7464 14.0001 11.2V4.89716C13.977 4.89905 13.9537 4.90001 13.9301 4.90001H0.0700003C0.0464031 4.90001 0.0230581 4.89905 0 4.89716ZM4.90002 7.70002C4.90002 8.08664 4.58662 8.40003 4.20002 8.40003C3.81342 8.40003 3.50002 8.08664 3.50002 7.70002C3.50002 7.31341 3.81342 7.00002 4.20002 7.00002C4.58662 7.00002 4.90002 7.31341 4.90002 7.70002ZM4.20002 11.2C4.58662 11.2 4.90002 10.8866 4.90002 10.5C4.90002 10.1134 4.58662 9.80003 4.20002 9.80003C3.81342 9.80003 3.50002 10.1134 3.50002 10.5C3.50002 10.8866 3.81342 11.2 4.20002 11.2ZM10.5 7.70002C10.5 8.08664 10.1867 8.40003 9.80005 8.40003C9.41343 8.40003 9.10004 8.08664 9.10004 7.70002C9.10004 7.31341 9.41343 7.00002 9.80005 7.00002C10.1867 7.00002 10.5 7.31341 10.5 7.70002ZM7.00003 8.40003C7.38664 8.40003 7.70004 8.08664 7.70004 7.70002C7.70004 7.31341 7.38664 7.00002 7.00003 7.00002C6.61342 7.00002 6.30003 7.31341 6.30003 7.70002C6.30003 8.08664 6.61342 8.40003 7.00003 8.40003ZM7.70004 10.5C7.70004 10.8866 7.38664 11.2 7.00003 11.2C6.61342 11.2 6.30003 10.8866 6.30003 10.5C6.30003 10.1134 6.61342 9.80003 7.00003 9.80003C7.38664 9.80003 7.70004 10.1134 7.70004 10.5ZM9.80005 11.2C10.1867 11.2 10.5 10.8866 10.5 10.5C10.5 10.1134 10.1867 9.80003 9.80005 9.80003C9.41343 9.80003 9.10004 10.1134 9.10004 10.5C9.10004 10.8866 9.41343 11.2 9.80005 11.2Z" fill="#D1D1D1"/>
</g>
</g>
<defs>
<clipPath id="clip0_818_369">
<rect width="14" height="14" fill="white"/>
</clipPath>
</defs>
</svg>
