<svg width="21" height="21" viewBox="0 0 21 21" fill="none" xmlns="http://www.w3.org/2000/svg">
<path d="M17.9116 3.07222C13.8132 -1.02494 7.16937 -1.02396 3.07222 3.07447C-1.02494 7.1729 -1.02396 13.8167 3.07447 17.9139C7.1729 22.011 13.8167 22.01 17.9139 17.9116C19.8815 15.9433 20.9867 13.2739 20.9861 10.4908C20.9855 7.70808 19.8796 5.03958 17.9116 3.07222ZM15.8913 14.6167L15.8899 14.6181V14.6146L15.3583 15.1427C14.6707 15.839 13.6693 16.1255 12.7175 15.8982C11.7586 15.6415 10.847 15.233 10.0173 14.688C9.2465 14.1954 8.53215 13.6195 7.88724 12.9707C7.29386 12.3816 6.76076 11.7348 6.29579 11.0399C5.7872 10.2922 5.38466 9.47772 5.09958 8.61954C4.77278 7.61139 5.04359 6.50516 5.79913 5.76196L6.4217 5.13938C6.5948 4.96551 6.87606 4.9649 7.04989 5.13799L7.05129 5.13938L9.01697 7.10506C9.19084 7.27816 9.19145 7.55942 9.01836 7.73325L9.01697 7.73464L7.86273 8.88888C7.53155 9.21646 7.4899 9.73701 7.76481 10.1131C8.18228 10.686 8.64426 11.2251 9.14641 11.7255C9.70627 12.2878 10.3149 12.7993 10.9652 13.254C11.3409 13.5161 11.8503 13.4719 12.1754 13.1491L13.2911 12.0158C13.4642 11.842 13.7455 11.8414 13.9193 12.0144L13.9207 12.0158L15.8899 13.9885C16.0638 14.1616 16.0644 14.4428 15.8913 14.6167Z" fill="white"/>
</svg>
