<svg width="23" height="23" viewBox="0 0 23 23" fill="none" xmlns="http://www.w3.org/2000/svg">
<path d="M17 4.9C17.2916 4.90033 17.5712 5.01634 17.7774 5.22255C17.9837 5.42877 18.0997 5.70836 18.1 6V17C18.0997 17.2916 17.9837 17.5712 17.7774 17.7774C17.5712 17.9837 17.2916 18.0997 17 18.1H6C5.70836 18.0997 5.42877 17.9837 5.22255 17.7774C5.01634 17.5712 4.90033 17.2916 4.9 17V6C4.90033 5.70836 5.01634 5.42877 5.22255 5.22255C5.42877 5.01634 5.70836 4.90033 6 4.9H17ZM17 3.8H6C5.41652 3.8 4.85695 4.03179 4.44437 4.44437C4.03179 4.85695 3.8 5.41652 3.8 6V17C3.8 17.5835 4.03179 18.1431 4.44437 18.5556C4.85695 18.9682 5.41652 19.2 6 19.2H17C17.5835 19.2 18.1431 18.9682 18.5556 18.5556C18.9682 18.1431 19.2 17.5835 19.2 17V6C19.2 5.41652 18.9682 4.85695 18.5556 4.44437C18.1431 4.03179 17.5835 3.8 17 3.8ZM2.7 4.35C2.70004 4.27776 2.68584 4.20622 2.65822 4.13947C2.63059 4.07273 2.59008 4.01208 2.539 3.961C2.48792 3.90992 2.42727 3.86941 2.36053 3.84178C2.29378 3.81416 2.22224 3.79996 2.15 3.8H1.05C0.904131 3.8 0.764236 3.85795 0.661091 3.96109C0.557946 4.06424 0.5 4.20413 0.5 4.35C0.5 4.49587 0.557946 4.63576 0.661091 4.73891C0.764236 4.84205 0.904131 4.9 1.05 4.9H2.15C2.22224 4.90004 2.29378 4.88584 2.36053 4.85822C2.42727 4.83059 2.48792 4.79008 2.539 4.739C2.59008 4.68792 2.63059 4.62727 2.65822 4.56053C2.68584 4.49378 2.70004 4.42224 2.7 4.35ZM4.9 2.15V1.05C4.9 0.904131 4.84205 0.764236 4.73891 0.661091C4.63576 0.557946 4.49587 0.5 4.35 0.5C4.20413 0.5 4.06424 0.557946 3.96109 0.661091C3.85795 0.764236 3.8 0.904131 3.8 1.05V2.15C3.8 2.29587 3.85795 2.43576 3.96109 2.53891C4.06424 2.64205 4.20413 2.7 4.35 2.7C4.49587 2.7 4.63576 2.64205 4.73891 2.53891C4.84205 2.43576 4.9 2.29587 4.9 2.15ZM19.2 2.15V1.05C19.2 0.904131 19.1421 0.764236 19.0389 0.661091C18.9358 0.557946 18.7959 0.5 18.65 0.5C18.5041 0.5 18.3642 0.557946 18.2611 0.661091C18.1579 0.764236 18.1 0.904131 18.1 1.05V2.15C18.1 2.29587 18.1579 2.43576 18.2611 2.53891C18.3642 2.64205 18.5041 2.7 18.65 2.7C18.7959 2.7 18.9358 2.64205 19.0389 2.53891C19.1421 2.43576 19.2 2.29587 19.2 2.15ZM22.5 4.35C22.5 4.27776 22.4858 4.20622 22.4582 4.13947C22.4306 4.07273 22.3901 4.01208 22.339 3.961C22.2879 3.90992 22.2273 3.86941 22.1605 3.84178C22.0938 3.81416 22.0222 3.79996 21.95 3.8H20.85C20.7041 3.8 20.5642 3.85795 20.4611 3.96109C20.3579 4.06424 20.3 4.20413 20.3 4.35C20.3 4.49587 20.3579 4.63576 20.4611 4.73891C20.5642 4.84205 20.7041 4.9 20.85 4.9H21.95C22.0222 4.90004 22.0938 4.88584 22.1605 4.85822C22.2273 4.83059 22.2879 4.79008 22.339 4.739C22.3901 4.68792 22.4306 4.62727 22.4582 4.56053C22.4858 4.49378 22.5 4.42224 22.5 4.35ZM22.5 18.65C22.5 18.5778 22.4858 18.5062 22.4582 18.4395C22.4306 18.3727 22.3901 18.3121 22.339 18.261C22.2879 18.2099 22.2273 18.1694 22.1605 18.1418C22.0938 18.1142 22.0222 18.1 21.95 18.1H20.85C20.7041 18.1 20.5642 18.1579 20.4611 18.2611C20.3579 18.3642 20.3 18.5041 20.3 18.65C20.3 18.7959 20.3579 18.9358 20.4611 19.0389C20.5642 19.1421 20.7041 19.2 20.85 19.2H21.95C22.0222 19.2 22.0938 19.1858 22.1605 19.1582C22.2273 19.1306 22.2879 19.0901 22.339 19.039C22.3901 18.9879 22.4306 18.9273 22.4582 18.8605C22.4858 18.7938 22.5 18.7222 22.5 18.65ZM19.2 21.95V20.85C19.2 20.7041 19.1421 20.5642 19.0389 20.4611C18.9358 20.3579 18.7959 20.3 18.65 20.3C18.5041 20.3 18.3642 20.3579 18.2611 20.4611C18.1579 20.5642 18.1 20.7041 18.1 20.85V21.95C18.1 22.0959 18.1579 22.2358 18.2611 22.3389C18.3642 22.4421 18.5041 22.5 18.65 22.5C18.7959 22.5 18.9358 22.4421 19.0389 22.3389C19.1421 22.2358 19.2 22.0959 19.2 21.95ZM2.7 18.65C2.70004 18.5778 2.68584 18.5062 2.65822 18.4395C2.63059 18.3727 2.59008 18.3121 2.539 18.261C2.48792 18.2099 2.42727 18.1694 2.36053 18.1418C2.29378 18.1142 2.22224 18.1 2.15 18.1H1.05C0.904131 18.1 0.764236 18.1579 0.661091 18.2611C0.557946 18.3642 0.5 18.5041 0.5 18.65C0.5 18.7959 0.557946 18.9358 0.661091 19.0389C0.764236 19.1421 0.904131 19.2 1.05 19.2H2.15C2.22224 19.2 2.29378 19.1858 2.36053 19.1582C2.42727 19.1306 2.48792 19.0901 2.539 19.039C2.59008 18.9879 2.63059 18.9273 2.65822 18.8605C2.68584 18.7938 2.70004 18.7222 2.7 18.65ZM4.9 21.95V20.85C4.9 20.7041 4.84205 20.5642 4.73891 20.4611C4.63576 20.3579 4.49587 20.3 4.35 20.3C4.20413 20.3 4.06424 20.3579 3.96109 20.4611C3.85795 20.5642 3.8 20.7041 3.8 20.85V21.95C3.8 22.0959 3.85795 22.2358 3.96109 22.3389C4.06424 22.4421 4.20413 22.5 4.35 22.5C4.49587 22.5 4.63576 22.4421 4.73891 22.3389C4.84205 22.2358 4.9 22.0959 4.9 21.95Z" fill="white" stroke="#FFFEFE"/>
</svg>
