<svg width="16" height="16" viewBox="0 0 16 16" fill="none" xmlns="http://www.w3.org/2000/svg">
<path d="M8 15.9848C3.5888 15.9848 0 12.4431 0 8.08979V7.69504H0.0103998C0.2192 3.52413 3.7232 0.194824 8 0.194824C12.2768 0.194824 15.7808 3.52413 15.9896 7.69504H16V8.08979C16 12.4431 12.4112 15.9848 8 15.9848ZM8.8 7.65241V4.9318C8.8 4.496 8.4416 4.14231 8 4.14231C7.5584 4.14231 7.2 4.496 7.2 4.9318V8.08979C7.2 8.36217 7.3424 8.61481 7.576 8.75928L10.0976 10.3146C10.472 10.5459 10.9656 10.433 11.2 10.0635C11.4344 9.69326 11.32 9.20614 10.9456 8.97482L8.8 7.65162V7.65241Z" fill="#D1D1D1"/>
</svg>
