<svg width="22" height="22" viewBox="0 0 22 22" fill="none" xmlns="http://www.w3.org/2000/svg">
<g clip-path="url(#clip0_942_3422)">
<path d="M11 0.6875C8.96038 0.6875 6.96657 1.29232 5.27069 2.42547C3.5748 3.55862 2.25303 5.16921 1.4725 7.05358C0.691968 8.93794 0.487746 11.0114 0.885656 13.0119C1.28357 15.0123 2.26574 16.8498 3.70797 18.292C5.1502 19.7343 6.98771 20.7164 8.98814 21.1143C10.9886 21.5123 13.0621 21.308 14.9464 20.5275C16.8308 19.747 18.4414 18.4252 19.5745 16.7293C20.7077 15.0334 21.3125 13.0396 21.3125 11C21.3115 8.26526 20.2247 5.64281 18.291 3.70905C16.3572 1.7753 13.7347 0.688489 11 0.6875ZM17.1394 13.2138C16.7392 14.1898 16.104 15.0518 15.2904 15.7232C14.4768 16.3946 13.5099 16.8545 12.4756 17.0622C11.4414 17.2698 10.3719 17.2187 9.36215 16.9134C8.35242 16.6081 7.43377 16.0581 6.68786 15.3121C5.94195 14.5662 5.39189 13.6476 5.08658 12.6379C4.78127 11.6281 4.73016 10.5586 4.93781 9.52437C5.14546 8.49013 5.60543 7.52322 6.27682 6.70959C6.94822 5.89596 7.81024 5.26082 8.78625 4.86063C8.89558 4.81397 9.01647 4.80147 9.13303 4.82478C9.24959 4.8481 9.35637 4.90613 9.43935 4.99125C9.52407 5.07302 9.58194 5.17862 9.60527 5.29404C9.6286 5.40946 9.61629 5.52924 9.56997 5.6375C9.1831 6.58726 9.08504 7.63004 9.28807 8.63527C9.49111 9.6405 9.9862 10.5635 10.7114 11.2886C11.4365 12.0138 12.3595 12.5089 13.3647 12.7119C14.37 12.9149 15.4128 12.8169 16.3625 12.43C16.4708 12.3837 16.5905 12.3714 16.706 12.3947C16.8214 12.418 16.927 12.4759 17.0088 12.5606C17.0939 12.6436 17.1519 12.7504 17.1752 12.867C17.1985 12.9835 17.186 13.1044 17.1394 13.2138Z" fill="#010101"/>
</g>
<defs>
<clipPath id="clip0_942_3422">
<rect width="22" height="22" fill="white"/>
</clipPath>
</defs>
</svg>
