<svg width="14" height="14" viewBox="0 0 14 14" fill="none" xmlns="http://www.w3.org/2000/svg">
<g clip-path="url(#clip0_419_207)">
<path d="M7.00003 0C7.38664 0 7.70004 0.313405 7.70004 0.700003H9.80005C9.80005 0.313405 10.1134 0 10.5 0C10.8867 0 11.2001 0.313405 11.2001 0.700003C12.7464 0.700003 14.0001 1.95361 14.0001 3.50002V3.50287C13.977 3.50098 13.9537 3.50002 13.9301 3.50002H0.0700003C0.0464031 3.50002 0.0230581 3.50098 0 3.50287V3.50002C0 1.95361 1.25361 0.700003 2.80001 0.700003C2.80001 0.313405 3.11342 0 3.50002 0C3.88661 0 4.20002 0.313405 4.20002 0.700003H6.30003C6.30003 0.313405 6.61342 0 7.00003 0Z" fill="#D1D1D1"/>
<path fill-rule="evenodd" clip-rule="evenodd" d="M0 4.89697V11.1999C0 12.7462 1.25361 13.9999 2.80001 13.9999H11.2001C12.7464 13.9999 14.0001 12.7462 14.0001 11.1999V4.89697C13.977 4.89886 13.9537 4.89983 13.9301 4.89983H0.0700003C0.0464031 4.89983 0.0230581 4.89886 0 4.89697ZM4.90002 7.69984C4.90002 8.08645 4.58662 8.39984 4.20002 8.39984C3.81342 8.39984 3.50002 8.08645 3.50002 7.69984C3.50002 7.31323 3.81342 6.99984 4.20002 6.99984C4.58662 6.99984 4.90002 7.31323 4.90002 7.69984ZM4.20002 11.1999C4.58662 11.1999 4.90002 10.8865 4.90002 10.4999C4.90002 10.1132 4.58662 9.79985 4.20002 9.79985C3.81342 9.79985 3.50002 10.1132 3.50002 10.4999C3.50002 10.8865 3.81342 11.1999 4.20002 11.1999ZM10.5 7.69984C10.5 8.08645 10.1867 8.39984 9.80005 8.39984C9.41343 8.39984 9.10004 8.08645 9.10004 7.69984C9.10004 7.31323 9.41343 6.99984 9.80005 6.99984C10.1867 6.99984 10.5 7.31323 10.5 7.69984ZM7.00003 8.39984C7.38664 8.39984 7.70004 8.08645 7.70004 7.69984C7.70004 7.31323 7.38664 6.99984 7.00003 6.99984C6.61342 6.99984 6.30003 7.31323 6.30003 7.69984C6.30003 8.08645 6.61342 8.39984 7.00003 8.39984ZM7.70004 10.4999C7.70004 10.8865 7.38664 11.1999 7.00003 11.1999C6.61342 11.1999 6.30003 10.8865 6.30003 10.4999C6.30003 10.1132 6.61342 9.79985 7.00003 9.79985C7.38664 9.79985 7.70004 10.1132 7.70004 10.4999ZM9.80005 11.1999C10.1867 11.1999 10.5 10.8865 10.5 10.4999C10.5 10.1132 10.1867 9.79985 9.80005 9.79985C9.41343 9.79985 9.10004 10.1132 9.10004 10.4999C9.10004 10.8865 9.41343 11.1999 9.80005 11.1999Z" fill="#D1D1D1"/>
</g>
<defs>
<clipPath id="clip0_419_207">
<rect width="14" height="14" fill="white"/>
</clipPath>
</defs>
</svg>
