<svg width="19" height="20" viewBox="0 0 19 20" fill="none" xmlns="http://www.w3.org/2000/svg">
<path d="M2.95176 16.9114L2.95177 16.9115C3.02471 18.4063 4.30036 19.575 5.86119 19.575H13.1388C14.6924 19.575 15.9753 18.4064 16.0482 16.9115L16.0482 16.9114L16.633 4.64643H17.2985C17.5518 4.64643 17.7477 4.55388 17.8798 4.41012C18.0108 4.26756 18.075 4.07917 18.075 3.89286C18.075 3.70654 18.0108 3.51815 17.8798 3.37559C17.7477 3.23184 17.5518 3.13929 17.2985 3.13929H17.2914H13.1146V2.53571C13.1146 1.37162 12.1213 0.425 10.9137 0.425H8.0792C6.87164 0.425 5.87831 1.37162 5.87831 2.53571V3.13929H1.70154C1.4482 3.13929 1.25227 3.23184 1.12016 3.37559C0.98915 3.51815 0.925 3.70654 0.925 3.89286C0.925 4.07917 0.98915 4.26756 1.12016 4.41012C1.25227 4.55388 1.4482 4.64643 1.70154 4.64643H2.36701L2.95176 16.9114ZM15.0585 4.64643L14.4845 16.7718H14.4775L14.4741 16.8431C14.4407 17.5265 13.8528 18.0679 13.1317 18.0679H5.86119C5.14012 18.0679 4.55219 17.5265 4.51885 16.8431L3.94149 4.64643H15.0585ZM7.44557 2.53571C7.44557 2.20695 7.72778 1.93214 8.0792 1.93214H10.9137C11.2651 1.93214 11.5473 2.20695 11.5473 2.53571V3.13929H7.44557V2.53571Z" fill="#FFFEFE" stroke="#FFFEFE" stroke-width="0.15"/>
<path d="M6.58699 7.28556V15.4284C6.58699 15.6741 6.68508 15.8632 6.8351 15.9896C6.98346 16.1146 7.17852 16.1752 7.37062 16.1752C7.56271 16.1752 7.75777 16.1146 7.90613 15.9896C8.05615 15.8632 8.15424 15.6741 8.15424 15.4284V7.28556C8.15424 7.03983 8.05615 6.85078 7.90613 6.72436C7.75777 6.59935 7.56271 6.53877 7.37062 6.53877C7.17852 6.53877 6.98346 6.59935 6.8351 6.72436C6.68508 6.85078 6.58699 7.03983 6.58699 7.28556Z" fill="#FFFEFE" stroke="#FFFEFE" stroke-width="0.15"/>
<path d="M10.8387 7.28556V15.4284C10.8387 15.6741 10.9368 15.8632 11.0868 15.9896C11.2352 16.1146 11.4302 16.1752 11.6223 16.1752C11.8144 16.1752 12.0095 16.1146 12.1578 15.9896C12.3079 15.8632 12.406 15.6741 12.406 15.4284V7.28556C12.406 7.03983 12.3079 6.85078 12.1578 6.72436C12.0095 6.59935 11.8144 6.53877 11.6223 6.53877C11.4302 6.53877 11.2352 6.59935 11.0868 6.72436C10.9368 6.85078 10.8387 7.03983 10.8387 7.28556Z" fill="#FFFEFE" stroke="#FFFEFE" stroke-width="0.15"/>
</svg>
