<svg width="20" height="20" viewBox="0 0 20 20" fill="none" xmlns="http://www.w3.org/2000/svg">
<g clip-path="url(#clip0_914_391)">
<path d="M12.0745 12.2759C11.8307 12.0317 11.4346 12.0317 11.1907 12.2759L7.6333 15.8333C7.38916 16.0773 7.38916 16.4731 7.6333 16.7171C7.75522 16.8392 7.91529 16.9002 8.07522 16.9002C8.23514 16.9002 8.39518 16.8391 8.51713 16.7171L12.0746 13.1597C12.3187 12.9157 12.3187 12.5199 12.0745 12.2759Z" fill="#A0A0A0"/>
<path d="M8.37209 13.7428C8.94549 13.7428 9.41061 13.2782 9.41061 12.7043C9.41061 12.1306 8.94553 11.6646 8.37209 11.6646C7.79791 11.6646 7.33252 12.1306 7.33252 12.7043C7.33252 13.2781 7.79791 13.7431 8.37209 13.7428Z" fill="#A0A0A0"/>
<path d="M11.6288 14.9219C11.0546 14.9219 10.5894 15.3873 10.5894 15.961C10.5894 16.535 11.0546 17.0001 11.6288 17.0001C12.2021 17.0001 12.6671 16.5347 12.6671 15.9608C12.6671 15.3866 12.2021 14.9219 11.6288 14.9219Z" fill="#A0A0A0"/>
<path d="M16.6633 5.26978C16.6633 4.66278 16.3873 3.83911 16.0212 3.35387L14.196 0.934455C13.7945 0.402813 12.9902 0.00199219 12.3254 0.00199219L7.66386 0C7.66323 0 7.66276 0 7.66218 0C6.9969 0 6.19366 0.400391 5.79331 0.931838L3.97143 3.3493C3.60615 3.83376 3.33057 4.65728 3.33057 5.26521L3.33822 18.5171C3.33932 19.3336 4.00428 19.9978 4.82045 19.9978L15.1889 20C15.5959 20.0045 15.9555 19.8459 16.2358 19.5652C16.516 19.2849 16.6699 18.9132 16.6695 18.5193L16.6633 5.26978ZM15.3515 18.6816C15.326 18.7072 15.2711 18.75 15.1897 18.75C15.1895 18.75 15.1895 18.75 15.1895 18.75H15.1892L4.82057 18.7478C4.69483 18.7478 4.58834 18.6414 4.58819 18.5161L4.58053 5.26489C4.58053 4.93224 4.76944 4.36708 4.96948 4.10188L6.79151 1.68414C6.95678 1.46485 7.38784 1.25 7.66249 1.25C7.66265 1.25 7.6628 1.25 7.6628 1.25L12.3251 1.25199C12.5997 1.25199 13.0323 1.46774 13.1982 1.68746L15.0233 4.10677C15.2238 4.37243 15.4134 4.93774 15.4134 5.27009L15.4195 18.5203C15.4196 18.6015 15.377 18.6562 15.3515 18.6816Z" fill="#A0A0A0"/>
<path d="M9.99733 6.22557C10.4945 6.22557 10.9618 6.03194 11.3132 5.68053C11.6648 5.32881 11.8583 4.86116 11.8578 4.36385C11.8574 3.33787 11.0223 2.50291 9.99612 2.50244C9.99584 2.50244 9.99549 2.50244 9.99522 2.50244C9.49838 2.50244 9.03115 2.69576 8.67963 3.04705C8.32775 3.39862 8.13412 3.86615 8.13428 4.36342C8.13428 4.36358 8.13428 4.36358 8.13428 4.36358C8.13514 5.38893 8.97057 6.22421 9.99733 6.22557ZM9.56307 3.93127C9.67858 3.81592 9.83194 3.75244 9.99522 3.75244C9.99537 3.75244 9.99549 3.75244 9.99549 3.75244C10.333 3.7526 10.6077 4.02709 10.6078 4.36479C10.608 4.52807 10.5445 4.68139 10.4293 4.79674C10.314 4.91209 10.1606 4.97557 9.99811 4.97557C9.65998 4.9751 9.38455 4.70014 9.38424 4.36264C9.38424 4.19967 9.44772 4.04647 9.56307 3.93127Z" fill="#A0A0A0"/>
<path d="M13.6845 8.30908C13.5656 8.42475 13.5 8.58404 13.5 8.74975C13.5 8.91545 13.5656 9.07475 13.6845 9.19041C13.8 9.30912 13.9594 9.37475 14.125 9.37475C14.2907 9.37475 14.45 9.30912 14.5656 9.19041C14.6843 9.07475 14.75 8.91545 14.75 8.74975C14.75 8.58404 14.6843 8.42475 14.5656 8.30908C14.3345 8.07471 13.9156 8.07471 13.6845 8.30908Z" fill="#A0A0A0"/>
<path d="M12.0625 8.125C11.7155 8.125 11.4375 8.40621 11.4375 8.75C11.4375 9.09379 11.7155 9.375 12.0625 9.375C12.4061 9.375 12.6875 9.09379 12.6875 8.75C12.6875 8.40621 12.4061 8.125 12.0625 8.125Z" fill="#A0A0A0"/>
<path d="M9.375 8.75C9.375 9.09375 9.65301 9.375 10 9.375C10.3438 9.375 10.625 9.09379 10.625 8.75C10.625 8.40621 10.3438 8.125 10 8.125C9.65297 8.125 9.375 8.40621 9.375 8.75Z" fill="#A0A0A0"/>
<path d="M7.9375 9.375C8.28125 9.375 8.5625 9.09379 8.5625 8.75C8.5625 8.40621 8.28129 8.125 7.9375 8.125C7.59375 8.125 7.3125 8.40621 7.3125 8.75C7.3125 9.09379 7.59371 9.375 7.9375 9.375Z" fill="#A0A0A0"/>
<path d="M5.43125 8.30947C5.31559 8.42513 5.25 8.58443 5.25 8.75013C5.25 8.91583 5.31562 9.07513 5.43434 9.19079C5.55 9.30951 5.70945 9.37513 5.875 9.37513C6.0407 9.37513 6.2 9.30951 6.31871 9.19079C6.43438 9.07513 6.49996 8.91583 6.49996 8.75013C6.49996 8.58763 6.43434 8.42513 6.31563 8.30642C6.08434 8.07509 5.66563 8.07509 5.43125 8.30947Z" fill="#A0A0A0"/>
</g>
<defs>
<clipPath id="clip0_914_391">
<rect width="20" height="20" fill="white"/>
</clipPath>
</defs>
</svg>
