<svg width="22" height="23" viewBox="0 0 22 23" fill="none" xmlns="http://www.w3.org/2000/svg">
<path d="M17.4112 0.5H8.74889C6.24822 0.5 4.24018 2.44894 4.17766 4.94064L4.16516 10.7243C4.16516 11.464 4.76032 12.0649 5.49052 12.0649C6.22321 12.0649 6.82088 11.464 6.82088 10.7243L6.81087 5.26883L6.82838 5.07949C6.85338 4.01667 7.69861 3.18357 8.74889 3.18357H17.4112C18.474 3.18357 19.3042 4.02676 19.3417 5.14008L19.3543 13.5972L19.3342 13.7942C19.3042 14.857 18.459 15.6901 17.4112 15.6901H11.2821C10.5494 15.6901 9.95172 16.2934 9.95172 17.0331C9.95172 17.7728 10.5494 18.3736 11.2821 18.3736H17.4112C19.8719 18.3736 21.9199 16.3995 21.9775 13.9885L22 13.8043L21.985 4.88258C21.8574 2.42622 19.8469 0.5 17.4112 0.5Z" fill="white"/>
<path d="M6.84435 17.0341H5.41396V15.5901C5.41396 14.8504 4.8188 14.2471 4.0861 14.2471C3.3534 14.2471 2.75824 14.8504 2.75824 15.5901V17.0341H1.32786C0.595161 17.0341 0 17.635 0 18.3747C0 19.1144 0.595161 19.7152 1.32786 19.7152H2.75824V21.1592C2.75824 21.8989 3.3534 22.4997 4.0861 22.4997C4.8188 22.4997 5.41396 21.8989 5.41396 21.1592V19.7152H6.84435C7.57704 19.7152 8.17471 19.1144 8.17471 18.3747C8.17471 17.635 7.57704 17.0341 6.84435 17.0341Z" fill="white"/>
</svg>
