<svg width="22" height="22" viewBox="0 0 22 22" fill="none" xmlns="http://www.w3.org/2000/svg">
<g clip-path="url(#clip0_471_153)">
<mask id="mask0_471_153" style="mask-type:luminance" maskUnits="userSpaceOnUse" x="0" y="0" width="22" height="22">
<path d="M0 0H22V22H0V0Z" fill="white"/>
</mask>
<g mask="url(#mask0_471_153)">
<path fill-rule="evenodd" clip-rule="evenodd" d="M18.8837 1.83333C18.5501 1.83333 18.2419 1.9381 17.9735 2.20653L9.43129 10.7488L8.68172 13.3186L11.2516 12.5691L19.7938 4.02683C19.9906 3.83011 20.167 3.42079 20.167 3.11666C20.167 2.43126 19.5691 1.83333 18.8837 1.83333ZM16.6772 0.910163C17.3254 0.261927 18.1173 0 18.8837 0C20.5816 0 22.0004 1.41873 22.0004 3.11666C22.0004 3.91253 21.6268 4.78657 21.0902 5.32318L12.3819 14.0315C12.273 14.1405 12.1383 14.2202 11.9903 14.2633L7.59035 15.5467C7.26903 15.6403 6.92217 15.5515 6.6855 15.3148C6.44882 15.0782 6.35996 14.7313 6.45368 14.41L7.73701 10.01C7.78015 9.86214 7.85988 9.72748 7.96883 9.61849L16.6772 0.910163Z" fill="black"/>
<path fill-rule="evenodd" clip-rule="evenodd" d="M0 6.41683C0 3.89391 2.06041 1.8335 4.58333 1.8335H10.0833C10.5896 1.8335 11 2.24391 11 2.75016C11 3.25642 10.5896 3.66683 10.0833 3.66683H4.58333C3.07292 3.66683 1.83333 4.90642 1.83333 6.41683V17.4168C1.83333 18.9272 3.07292 20.1668 4.58333 20.1668H15.5833C17.0937 20.1668 18.3333 18.9272 18.3333 17.4168V11.9168C18.3333 11.4106 18.7437 11.0002 19.25 11.0002C19.7563 11.0002 20.1667 11.4106 20.1667 11.9168V17.4168C20.1667 19.9398 18.1063 22.0002 15.5833 22.0002H4.58333C2.06041 22.0002 0 19.9398 0 17.4168V6.41683Z" fill="black"/>
</g>
</g>
<defs>
<clipPath id="clip0_471_153">
<rect width="22" height="22" fill="white"/>
</clipPath>
</defs>
</svg>
