<svg width="20" height="20" viewBox="0 0 20 20" fill="none" xmlns="http://www.w3.org/2000/svg">
<g id="Frame">
<g id="Layer 2">
<path id="Vector" d="M6.66667 1.0415H3.33334C2.06769 1.0415 1.04167 2.06752 1.04167 3.33317V6.6665C1.04167 7.93216 2.06769 8.95817 3.33334 8.95817H6.66667C7.93232 8.95817 8.95834 7.93216 8.95834 6.6665V3.33317C8.95834 2.06752 7.93232 1.0415 6.66667 1.0415Z" fill="black"/>
<path id="Vector_2" d="M16.6667 1.0415H13.3333C12.0677 1.0415 11.0417 2.06752 11.0417 3.33317V6.6665C11.0417 7.93216 12.0677 8.95817 13.3333 8.95817H16.6667C17.9323 8.95817 18.9583 7.93216 18.9583 6.6665V3.33317C18.9583 2.06752 17.9323 1.0415 16.6667 1.0415Z" fill="black"/>
<path id="Vector_3" d="M6.66667 11.0415H3.33334C2.06769 11.0415 1.04167 12.0675 1.04167 13.3332V16.6665C1.04167 17.9322 2.06769 18.9582 3.33334 18.9582H6.66667C7.93232 18.9582 8.95834 17.9322 8.95834 16.6665V13.3332C8.95834 12.0675 7.93232 11.0415 6.66667 11.0415Z" fill="black"/>
<path id="Vector_4" d="M19.0194 13.969L16.0311 10.9807C15.7573 10.7079 15.3865 10.5547 15 10.5547C14.6135 10.5547 14.2427 10.7079 13.9689 10.9807L10.9806 13.969C10.7074 14.2426 10.554 14.6134 10.554 15.0001C10.554 15.3867 10.7074 15.7576 10.9806 16.0312L13.9689 19.0194C14.2426 19.2925 14.6134 19.4459 15 19.4459C15.3866 19.4459 15.7574 19.2925 16.0311 19.0194L19.0194 16.0312C19.2926 15.7576 19.446 15.3867 19.446 15.0001C19.446 14.6134 19.2926 14.2426 19.0194 13.969Z" fill="black"/>
</g>
</g>
</svg>
