<svg width="18" height="18" viewBox="0 0 18 18" fill="none" xmlns="http://www.w3.org/2000/svg">
<g clip-path="url(#clip0_922_285)">
<path d="M16.5003 2.40021C16.0328 1.88167 15.4616 1.46709 14.8237 1.18333C14.1858 0.89956 13.4954 0.75293 12.7972 0.75293C12.099 0.75293 11.4086 0.89956 10.7707 1.18333C10.1328 1.46709 9.56156 1.88167 9.09405 2.40021L9.0003 2.49246L8.9133 2.40021C8.44517 1.88307 7.87389 1.46975 7.23627 1.18688C6.59866 0.904008 5.90885 0.757863 5.2113 0.757863C4.51375 0.757863 3.82394 0.904008 3.18632 1.18688C2.54871 1.46975 1.97743 1.88307 1.5093 2.40021C0.541622 3.47073 0.00585938 4.8624 0.00585938 6.30546C0.00585938 7.74852 0.541622 9.14019 1.5093 10.2107L7.39005 16.5415C7.59648 16.7625 7.84615 16.9387 8.12354 17.0592C8.40093 17.1796 8.70012 17.2418 9.00255 17.2418C9.30497 17.2418 9.60417 17.1796 9.88156 17.0592C10.159 16.9387 10.4086 16.7625 10.615 16.5415L16.4958 10.2107C17.4586 9.13807 17.9916 7.74772 17.9924 6.30632C17.9932 4.86492 17.4619 3.47396 16.5003 2.40021Z" fill="#3E3E3E"/>
</g>
<defs>
<clipPath id="clip0_922_285">
<rect width="18" height="18" fill="white"/>
</clipPath>
</defs>
</svg>
