<svg width="20" height="20" viewBox="0 0 20 20" fill="none" xmlns="http://www.w3.org/2000/svg">
<path d="M6.09932 20C7.42873 19.9963 8.72136 19.5642 9.7846 18.768L9.97856 18.6229L10.1725 18.768C11.0846 19.4505 12.1691 19.8662 13.3046 19.9686C14.4401 20.0711 15.5817 19.8562 16.6018 19.3481C17.6218 18.84 18.4799 18.0586 19.0801 17.0916C19.6802 16.1245 19.9987 15.0099 19.9999 13.8725C20.0056 12.6374 19.634 11.4299 18.9346 10.4107C18.2353 9.39156 17.2413 8.60908 16.0851 8.16747L15.7974 8.06749L15.8782 7.78692C16.1351 6.87596 16.177 5.91803 16.0007 4.98821C15.8243 4.05839 15.4344 3.18196 14.8617 2.42762C14.2889 1.67329 13.5488 1.06155 12.6993 0.640367C11.8499 0.219183 10.9142 0 9.96563 0C9.01705 0 8.08136 0.219183 7.23192 0.640367C6.38247 1.06155 5.64236 1.67329 5.06959 2.42762C4.49682 3.18196 4.10697 4.05839 3.9306 4.98821C3.75423 5.91803 3.79613 6.87596 4.05302 7.78692L4.1597 8.06749L3.88492 8.17392C2.55873 8.69672 1.45619 9.66356 0.766418 10.9086C0.0766405 12.1537 -0.157396 13.5994 0.104449 14.9978C0.366294 16.3962 1.1077 17.6601 2.20152 18.5728C3.29533 19.4855 4.67338 19.9901 6.09932 20ZM14.3265 9.70902C14.9605 9.77799 15.5705 9.99 16.1102 10.329C16.6499 10.668 17.1051 11.1251 17.4415 11.6656C17.7778 12.2062 17.9865 12.816 18.0516 13.4489C18.1167 14.0818 18.0365 14.7212 17.8172 15.3186C17.5979 15.9161 17.2451 16.4559 16.7857 16.8971C16.3262 17.3384 15.7721 17.6695 15.1654 17.8655C14.5586 18.0615 13.9151 18.1171 13.2837 18.0282C12.6522 17.9393 12.0492 17.7081 11.5206 17.3523L11.2716 17.1846L11.4236 16.9233C11.9605 15.997 12.2431 14.9458 12.2431 13.8757C12.2431 12.8057 11.9605 11.7545 11.4236 10.8281L11.2716 10.5669L11.5206 10.3992C12.2102 9.93196 13.0242 9.68148 13.8578 9.68C14.0145 9.68106 14.171 9.69075 14.3265 9.70902ZM9.97856 1.93999C10.5304 1.93999 11.0769 2.04843 11.5868 2.25913C12.0967 2.46982 12.5599 2.77864 12.9502 3.16795C13.3404 3.55726 13.65 4.01943 13.8612 4.52809C14.0724 5.03675 14.1811 5.58193 14.1811 6.13249C14.1808 6.61075 14.0977 7.08536 13.9354 7.53537L13.8578 7.74499H13.638C12.8034 7.77664 11.984 7.97704 11.2294 8.33405C10.4747 8.69106 9.80065 9.19724 9.24797 9.8219L9.22534 9.8477L9.07987 10.0218L8.94087 10.1928L8.73074 10.1283C7.74577 9.82463 6.90705 9.17039 6.3741 8.29002L6.35147 8.25455C5.97669 7.61746 5.77728 6.8929 5.77344 6.15422C5.76961 5.41553 5.96147 4.68895 6.32962 4.04803C6.69777 3.40711 7.22913 2.8746 7.8699 2.50442C8.51067 2.13424 9.23811 1.93952 9.97856 1.93999ZM4.85473 9.86705L5.06486 9.80255L5.20386 9.97347C6.21563 11.2275 7.6784 12.0375 9.2803 12.231H9.33202C9.48396 12.2471 9.62943 12.2568 9.76844 12.2632L9.97856 12.26L10.0529 12.4632C10.3123 13.1648 10.3754 13.9236 10.2353 14.6582C10.0952 15.3929 9.75723 16.0756 9.25767 16.6331C8.82914 17.12 8.29331 17.5012 7.69226 17.7467C7.09121 17.9922 6.44129 18.0955 5.79353 18.0483C5.14576 18.001 4.51778 17.8047 3.95888 17.4746C3.39998 17.1445 2.92537 16.6897 2.57232 16.1459C2.21927 15.602 1.99738 14.9839 1.92407 14.3401C1.85076 13.6963 1.92803 13.0443 2.1498 12.4353C2.37158 11.8263 2.73183 11.2769 3.20227 10.8302C3.67272 10.3834 4.24055 10.0516 4.8612 9.8606L4.85473 9.86705Z" fill="#FFFEFE"/>
</svg>
