<svg width="22" height="22" viewBox="0 0 22 22" fill="none" xmlns="http://www.w3.org/2000/svg">
<path d="M21.0084 7.52314L12.8145 0.636142C12.328 0.225954 11.7121 0.000976563 11.0757 0.000976562C10.4394 0.000976563 9.82349 0.225954 9.33696 0.636142L1.14276 7.52332C0.830557 7.78648 0.579856 8.11512 0.408321 8.48566C0.236785 8.8562 0.148587 9.25984 0.149941 9.66816V19.07C0.144225 19.8007 0.428583 20.5039 0.940637 21.0252C1.45269 21.5466 2.15063 21.8435 2.88134 21.851H19.2697C20.0005 21.8435 20.6984 21.5466 21.2105 21.0252C21.7225 20.5039 22.0069 19.8007 22.0011 19.07V9.66816C22.0026 9.25978 21.9144 8.85607 21.7429 8.48546C21.5714 8.11485 21.3206 7.78636 21.0084 7.52314ZM14.7174 17.2986H7.43368C7.19221 17.2986 6.96063 17.2027 6.78988 17.032C6.61913 16.8612 6.52321 16.6296 6.52321 16.3882C6.52321 16.1467 6.61913 15.9151 6.78988 15.7444C6.96063 15.5736 7.19221 15.4777 7.43368 15.4777H14.7174C14.9589 15.4777 15.1905 15.5736 15.3612 15.7444C15.532 15.9151 15.6279 16.1467 15.6279 16.3882C15.6279 16.6296 15.532 16.8612 15.3612 17.032C15.1905 17.2027 14.9589 17.2986 14.7174 17.2986Z" fill="#BCBCBC"/>
</svg>
