<svg width="16" height="16" viewBox="0 0 16 16" fill="none" xmlns="http://www.w3.org/2000/svg">
<g clip-path="url(#clip0_372_1934)">
<path d="M7.55656 10.3751C5.62966 10.3751 4.06201 8.80436 4.06201 6.87368V3.50823C4.06201 1.57755 5.62966 0.00683594 7.55656 0.00683594C9.48349 0.00683594 11.0511 1.57755 11.0511 3.50823V6.87368C11.0511 8.80436 9.48349 10.3751 7.55656 10.3751Z" fill="#DADA3B"/>
<path d="M7.55664 0.00683594V10.3751C9.48357 10.3751 11.0512 8.80436 11.0512 6.87368V3.50823C11.0512 1.57755 9.48354 0.00683594 7.55664 0.00683594Z" fill="#9DBC29"/>
<path d="M7.53304 3.37256C7.27467 3.37256 7.0652 3.58243 7.0652 3.84131V5.26999L6.75342 4.95449C6.57164 4.77052 6.27545 4.76905 6.0918 4.95121C5.90821 5.13336 5.90671 5.43014 6.08852 5.61411L7.06517 6.60248V15.5252C7.06517 15.784 7.27464 15.9939 7.53301 15.9939C7.79139 15.9939 8.00085 15.784 8.00085 15.5252V3.84131C8.00088 3.58243 7.79142 3.37256 7.53304 3.37256Z" fill="#A34F3E"/>
<path d="M7.55664 3.37451V15.9935C7.80398 15.9811 8.00092 15.7768 8.00092 15.5259V3.84204C8.00089 3.59114 7.80398 3.38689 7.55664 3.37451Z" fill="#873F2E"/>
<path d="M2.63679 15.9676C2.37841 15.9676 2.16895 15.7578 2.16895 15.4989V12.6133C2.16895 12.3544 2.37841 12.1445 2.63679 12.1445C2.89516 12.1445 3.10463 12.3544 3.10463 12.6133V15.4989C3.10463 15.7578 2.89516 15.9676 2.63679 15.9676Z" fill="#C86E59"/>
<path d="M2.63672 12.1445V15.9676C2.89509 15.9676 3.10456 15.7578 3.10456 15.4989V12.6133C3.10456 12.3544 2.89509 12.1445 2.63672 12.1445Z" fill="#A34F3E"/>
<path d="M2.63708 13.0817C1.87998 13.0817 1.19449 12.5481 0.706833 11.5791C0.270554 10.7121 0.0302734 9.56973 0.0302734 8.36252C0.0302734 5.88912 2.16973 2.95923 2.26083 2.83573C2.34905 2.7161 2.48867 2.64551 2.63711 2.64551C2.78554 2.64551 2.92517 2.7161 3.01339 2.83573C3.10445 2.95926 5.24391 5.88912 5.24391 8.36252C5.24391 9.56973 5.00363 10.7121 4.56732 11.5791C4.07969 12.5481 3.39417 13.0817 2.63708 13.0817Z" fill="#DADA3B"/>
<path d="M3.013 2.83573C2.92478 2.7161 2.78516 2.64551 2.63672 2.64551V13.0817C3.39381 13.0817 4.07931 12.5481 4.56696 11.5791C5.00327 10.7121 5.24355 9.56973 5.24355 8.36252C5.24352 5.88912 3.10406 2.95923 3.013 2.83573Z" fill="#9DBC29"/>
<path d="M14.2156 4.10776C12.7691 4.3077 11.5558 2.99126 11.9342 1.51948C12.1163 0.811139 12.6738 0.252514 13.3808 0.0700763C14.8497 -0.309049 16.1636 0.906608 15.964 2.35598C15.8389 3.26473 15.1226 3.98239 14.2156 4.10776Z" fill="#FFDD54"/>
<path d="M13.9243 0V4.12766C14.0201 4.12766 14.1174 4.12131 14.2158 4.10772C15.1227 3.98237 15.839 3.26469 15.9641 2.35594C16.1386 1.08859 15.156 0 13.9243 0Z" fill="#FFB454"/>
<path d="M13.9722 9.60802C13.7139 9.60802 13.5044 9.39814 13.5044 9.13927V6.51758C13.5044 6.2587 13.7139 6.04883 13.9722 6.04883C14.2306 6.04883 14.4401 6.2587 14.4401 6.51758V9.13927C14.4401 9.39814 14.2306 9.60802 13.9722 9.60802Z" fill="#FF405C"/>
<path d="M4.61475 16.0002V9.83135C4.61475 9.78669 4.63387 9.7441 4.66721 9.71447L9.64691 5.2884C9.67548 5.26302 9.71223 5.24902 9.75038 5.24902C9.78857 5.24902 9.82532 5.26302 9.85388 5.2884L14.8335 9.71447C14.8669 9.7441 14.886 9.78672 14.886 9.83135V16.0002H4.61475V16.0002Z" fill="#FFF2DE"/>
<path d="M14.8337 9.71447L9.85399 5.2884C9.82543 5.26302 9.78868 5.24902 9.75049 5.24902V16.0002H14.8861V9.83135C14.8861 9.78672 14.867 9.7441 14.8337 9.71447Z" fill="#FDE4C3"/>
<path d="M8.66934 15.9998H5.8623V11.1055C5.8623 10.8466 6.07177 10.6367 6.33015 10.6367H8.20149C8.45987 10.6367 8.66934 10.8466 8.66934 11.1055V15.9998Z" fill="#A34F3E"/>
<path d="M12.6932 13.3707H11.0941C10.9113 13.3707 10.7632 13.2223 10.7632 13.0392V11.437C10.7632 11.2539 10.9113 11.1055 11.0941 11.1055H12.6932C12.8759 11.1055 13.0241 11.2539 13.0241 11.437V13.0392C13.0241 13.2223 12.8759 13.3707 12.6932 13.3707Z" fill="#C8FFFF"/>
<path d="M13.0241 13.8395H10.7633C10.5049 13.8395 10.2954 13.6296 10.2954 13.3707V11.1055C10.2954 10.8466 10.5049 10.6367 10.7633 10.6367H13.0241C13.2825 10.6367 13.4919 10.8466 13.4919 11.1055V13.3707C13.4919 13.6296 13.2825 13.8395 13.0241 13.8395ZM11.2311 12.902H12.5562V11.5742H11.2311V12.902Z" fill="#A34F3E"/>
<path d="M15.5006 10.9853C15.3902 10.9853 15.2794 10.9464 15.1903 10.8672L9.75017 6.03188L4.31004 10.8672C4.11679 11.039 3.82107 11.0213 3.64961 10.8276C3.47814 10.634 3.49583 10.3377 3.68914 10.1659L9.43974 5.0546C9.61689 4.89716 9.88352 4.89716 10.0606 5.0546L15.8112 10.1659C16.0045 10.3377 16.0222 10.634 15.8508 10.8276C15.7583 10.932 15.6297 10.9853 15.5006 10.9853Z" fill="#FF405C"/>
<path d="M15.8116 10.1659L10.061 5.05462C9.97239 4.9759 9.86146 4.93652 9.75049 4.93652V6.03187L15.1906 10.8672C15.2797 10.9464 15.3906 10.9853 15.5009 10.9853C15.6301 10.9853 15.7586 10.932 15.8511 10.8276C16.0226 10.634 16.0049 10.3377 15.8116 10.1659Z" fill="#E20059"/>
<path d="M15.5321 16.0001H0.467842C0.209468 15.9941 0 15.7843 0 15.5254C0 15.2665 0.209468 15.0566 0.467842 15.0566H15.5321C15.7905 15.0566 15.9999 15.2665 15.9999 15.5254C15.9999 15.7843 15.7905 15.9941 15.5321 16.0001Z" fill="#DADA3B"/>
<path d="M15.5319 15.0566H8.00049V16.0001H15.5319C15.7903 15.9941 15.9997 15.7843 15.9997 15.5254C15.9997 15.2665 15.7903 15.0566 15.5319 15.0566Z" fill="#9DBC29"/>
</g>
<defs>
<clipPath id="clip0_372_1934">
<rect width="16" height="16" fill="white"/>
</clipPath>
</defs>
</svg>
