<svg width="20" height="20" viewBox="0 0 20 20" fill="none" xmlns="http://www.w3.org/2000/svg">
<g clip-path="url(#clip0_942_3253)">
<path d="M7.74119 2.72031C7.60205 3.09138 7.47499 3.48655 7.36035 3.90205C8.2149 4.04556 9.1023 4.12089 9.99951 4.12089C10.8967 4.12089 11.7841 4.04556 12.6387 3.90205C12.524 3.48655 12.397 3.09138 12.2578 2.72031C11.619 1.01693 10.7748 0 9.99951 0C9.22424 0 8.37998 1.01693 7.74119 2.72031Z" fill="black"/>
<path d="M12.3076 0.269043C12.6965 0.808042 13.0497 1.4911 13.3562 2.30864C13.5154 2.73312 13.6596 3.18624 13.7887 3.66284C14.8403 3.39977 15.8193 3.02819 16.6765 2.5616C15.4535 1.46285 13.9592 0.660623 12.3076 0.269043Z" fill="black"/>
<path d="M9.9995 5.29298C9.00058 5.29298 8.02339 5.20983 7.08617 5.04956C6.81337 6.37942 6.65415 7.86306 6.62207 9.41387H13.3769C13.3448 7.86306 13.1857 6.37942 12.9128 5.04956C11.9756 5.20979 10.9984 5.29298 9.9995 5.29298Z" fill="black"/>
<path d="M5.45012 10.5862H0.0175781C0.150306 12.8709 1.05322 14.9521 2.47036 16.5733C3.49632 15.9714 4.67028 15.5055 5.93992 15.1898C5.65075 13.7804 5.48266 12.2154 5.45012 10.5862Z" fill="black"/>
<path d="M14.5494 10.5862C14.5169 12.2154 14.3487 13.7804 14.0596 15.1898C15.3293 15.5055 16.5032 15.9715 17.5291 16.5733C18.9463 14.9521 19.8492 12.8709 19.9819 10.5862L14.5494 10.5862Z" fill="black"/>
<path d="M5.45008 9.41388C5.48262 7.78466 5.65075 6.21967 5.93992 4.81034C4.67024 4.49464 3.49628 4.02862 2.47036 3.42676C1.05322 5.04801 0.150306 7.12922 0.0175781 9.41392L5.45008 9.41388Z" fill="black"/>
<path d="M12.2578 17.2797C12.397 16.9087 12.524 16.5135 12.6387 16.098C11.7841 15.9545 10.8967 15.8792 9.99951 15.8792C9.1023 15.8792 8.2149 15.9545 7.36035 16.098C7.47503 16.5135 7.60205 16.9087 7.74119 17.2797C8.37998 18.9831 9.22421 20 9.99947 20C10.7747 20 11.619 18.9831 12.2578 17.2797Z" fill="black"/>
<path d="M9.9995 14.7071C10.9984 14.7071 11.9756 14.7902 12.9128 14.9505C13.1856 13.6206 13.3448 12.137 13.3769 10.5862H6.62207C6.65415 12.137 6.81333 13.6206 7.08617 14.9505C8.02335 14.7903 9.00054 14.7071 9.9995 14.7071Z" fill="black"/>
<path d="M14.0596 4.81038C14.3487 6.21971 14.5168 7.78474 14.5494 9.41392H19.982C19.8492 7.12922 18.9463 5.04801 17.5292 3.42676C16.5032 4.02866 15.3292 4.49467 14.0596 4.81038Z" fill="black"/>
<path d="M13.7887 16.3372C13.6596 16.8138 13.5154 17.2669 13.3562 17.6914C13.0496 18.5089 12.6965 19.192 12.3076 19.731C13.9592 19.3394 15.4535 18.5372 16.6765 17.4384C15.8193 16.9718 14.8403 16.6002 13.7887 16.3372Z" fill="black"/>
<path d="M6.21203 3.66284C6.34109 3.18624 6.4853 2.73312 6.64448 2.30864C6.95108 1.4911 7.30425 0.808042 7.6931 0.269043C6.04148 0.660623 4.54721 1.46285 3.32422 2.56163C4.18146 3.02819 5.16045 3.39977 6.21203 3.66284Z" fill="black"/>
<path d="M6.64448 17.6914C6.4853 17.2669 6.34109 16.8138 6.21203 16.3372C5.16045 16.6002 4.18146 16.9718 3.32422 17.4384C4.54721 18.5372 6.04148 19.3394 7.6931 19.731C7.30429 19.192 6.95108 18.5089 6.64448 17.6914Z" fill="black"/>
</g>
<defs>
<clipPath id="clip0_942_3253">
<rect width="20" height="20" fill="white"/>
</clipPath>
</defs>
</svg>
