<svg width="24" height="24" viewBox="0 0 24 24" fill="none" xmlns="http://www.w3.org/2000/svg">
<g clip-path="url(#clip0_942_3420)">
<path d="M12 0.75C9.77496 0.75 7.59989 1.4098 5.74984 2.64597C3.89979 3.88213 2.45785 5.63914 1.60636 7.69481C0.754875 9.75048 0.532087 12.0125 0.966171 14.1948C1.40025 16.3771 2.47171 18.3816 4.04505 19.955C5.61839 21.5283 7.62295 22.5998 9.80524 23.0338C11.9875 23.4679 14.2495 23.2451 16.3052 22.3936C18.3609 21.5422 20.1179 20.1002 21.354 18.2502C22.5902 16.4001 23.25 14.225 23.25 12C23.2464 9.01743 22.0599 6.15806 19.9509 4.04906C17.8419 1.94006 14.9826 0.753633 12 0.75ZM15.405 7.30875L16.6875 6.03C16.8573 5.86144 17.087 5.76704 17.3262 5.76748C17.5654 5.76791 17.7948 5.86314 17.9639 6.03232C18.1331 6.20149 18.2283 6.43081 18.2288 6.67005C18.2292 6.9093 18.1348 7.13897 17.9663 7.30875L16.6875 8.59125C16.5162 8.75892 16.286 8.85282 16.0463 8.85282C15.8065 8.85282 15.5763 8.75892 15.405 8.59125C15.3207 8.50707 15.2539 8.4071 15.2083 8.29708C15.1627 8.18705 15.1392 8.06911 15.1392 7.95C15.1392 7.83089 15.1627 7.71295 15.2083 7.60292C15.2539 7.4929 15.3207 7.39293 15.405 7.30875ZM11.0888 4.4625C11.0917 4.22428 11.1885 3.99683 11.358 3.82943C11.5275 3.66203 11.7561 3.56816 11.9944 3.56816C12.2326 3.56816 12.4613 3.66203 12.6308 3.82943C12.8003 3.99683 12.897 4.22428 12.9 4.4625V6.27C12.897 6.50822 12.8003 6.73567 12.6308 6.90307C12.4613 7.07047 12.2326 7.16434 11.9944 7.16434C11.7561 7.16434 11.5275 7.07047 11.358 6.90307C11.1885 6.73567 11.0917 6.50822 11.0888 6.27V4.4625ZM7.30125 6.03L8.58375 7.30875C8.66824 7.3929 8.7353 7.49289 8.7811 7.60298C8.8269 7.71308 8.85053 7.83113 8.85065 7.95037C8.85077 8.06962 8.82737 8.18771 8.78179 8.2979C8.73621 8.40809 8.66935 8.50821 8.58503 8.59253C8.50072 8.67685 8.4006 8.74371 8.29041 8.78929C8.18022 8.83486 8.06212 8.85826 7.94288 8.85814C7.82364 8.85803 7.70559 8.83439 7.59549 8.78859C7.48539 8.7428 7.3854 8.67574 7.30125 8.59125L6.02625 7.30875C5.85945 7.1391 5.76635 6.91047 5.76718 6.67255C5.76801 6.43463 5.86271 6.20666 6.0307 6.03818C6.19869 5.8697 6.42638 5.77433 6.6643 5.77279C6.90221 5.77126 7.13111 5.8637 7.30125 6.03ZM4.455 11.0963H6.26625C6.50594 11.0963 6.73582 11.1915 6.9053 11.361C7.07479 11.5304 7.17 11.7603 7.17 12C7.17 12.2397 7.07479 12.4696 6.9053 12.639C6.73582 12.8085 6.50594 12.9037 6.26625 12.9037H4.455C4.21717 12.9009 3.99004 12.8045 3.82286 12.6353C3.65568 12.4661 3.56193 12.2378 3.56193 12C3.56193 11.7622 3.65568 11.5339 3.82286 11.3647C3.99004 11.1955 4.21717 11.0991 4.455 11.0963ZM8.58375 16.6912L7.30125 17.97C7.13125 18.137 6.90213 18.23 6.66385 18.2287C6.42557 18.2275 6.19744 18.1321 6.0292 17.9633C5.86095 17.7946 5.76623 17.5662 5.76568 17.3279C5.76513 17.0896 5.85879 16.8608 6.02625 16.6912L7.30125 15.4088C7.47159 15.24 7.70185 15.1455 7.94165 15.146C8.18146 15.1466 8.41129 15.2421 8.58086 15.4116C8.75043 15.5812 8.84593 15.811 8.84647 16.0509C8.84701 16.2907 8.75255 16.5209 8.58375 16.6912ZM12.9 19.5375C12.897 19.7757 12.8003 20.0032 12.6308 20.1706C12.4613 20.338 12.2326 20.4318 11.9944 20.4318C11.7561 20.4318 11.5275 20.338 11.358 20.1706C11.1885 20.0032 11.0917 19.7757 11.0888 19.5375V17.73C11.0917 17.4918 11.1885 17.2643 11.358 17.0969C11.5275 16.9295 11.7561 16.8357 11.9944 16.8357C12.2326 16.8357 12.4613 16.9295 12.6308 17.0969C12.8003 17.2643 12.897 17.4918 12.9 17.73V19.5375ZM11.9963 16.0687C11.1915 16.0687 10.4049 15.8301 9.73578 15.383C9.06668 14.936 8.54517 14.3005 8.23722 13.557C7.92927 12.8136 7.84869 11.9955 8.00568 11.2062C8.16268 10.417 8.55019 9.69198 9.11921 9.12296C9.68824 8.55393 10.4132 8.16642 11.2025 8.00943C11.9917 7.85244 12.8098 7.93301 13.5533 8.24096C14.2968 8.54892 14.9322 9.07042 15.3793 9.73952C15.8264 10.4086 16.065 11.1953 16.065 12C16.0632 13.0786 15.634 14.1124 14.8713 14.8751C14.1087 15.6377 13.0748 16.067 11.9963 16.0687ZM16.6875 17.97L15.405 16.6912C15.2364 16.5209 15.1422 16.2907 15.1428 16.051C15.1435 15.8113 15.239 15.5817 15.4084 15.4122C15.5779 15.2427 15.8076 15.1472 16.0473 15.1466C16.2869 15.1459 16.5171 15.2402 16.6875 15.4088L17.9663 16.6912C18.1358 16.8608 18.2311 17.0908 18.2311 17.3306C18.2311 17.5704 18.1358 17.8004 17.9663 17.97C17.7967 18.1396 17.5667 18.2348 17.3269 18.2348C17.0871 18.2348 16.8571 18.1396 16.6875 17.97ZM19.5338 12.9037H17.7225C17.4847 12.9009 17.2575 12.8045 17.0904 12.6353C16.9232 12.4661 16.8294 12.2378 16.8294 12C16.8294 11.7622 16.9232 11.5339 17.0904 11.3647C17.2575 11.1955 17.4847 11.0991 17.7225 11.0963H19.5338C19.7734 11.0963 20.0033 11.1915 20.1728 11.361C20.3423 11.5304 20.4375 11.7603 20.4375 12C20.4375 12.2397 20.3423 12.4696 20.1728 12.639C20.0033 12.8085 19.7734 12.9037 19.5338 12.9037Z" fill="#FFCC00"/>
</g>
<defs>
<clipPath id="clip0_942_3420">
<rect width="24" height="24" fill="white"/>
</clipPath>
</defs>
</svg>
