<svg width="19" height="22" viewBox="0 0 19 22" fill="none" xmlns="http://www.w3.org/2000/svg">
<path d="M14.932 9.62139C14.932 6.58928 12.4953 4.12346 9.49898 4.12346C6.50402 4.12346 4.06595 6.58928 4.06595 9.62139C4.06595 12.6521 6.50402 15.1193 9.49898 15.1193C12.4953 15.1193 14.932 12.6521 14.932 9.62139ZM16.2332 16.7467L12.0824 20.9128C11.3612 21.6371 10.4348 22 9.50713 22C8.58216 22.0014 7.65583 21.6399 6.93459 20.9169L2.78104 16.7646C-0.924291 12.9256 -0.924291 6.70748 2.76474 2.88642C4.56171 1.02537 6.95361 0 9.49898 0C12.0457 0 14.4376 1.02537 16.2332 2.88642C19.9223 6.70748 19.9223 12.9256 16.2332 16.7467ZM12.2155 9.62139C12.2155 11.1374 10.9971 12.3704 9.49898 12.3704C8.00082 12.3704 6.78247 11.1374 6.78247 9.62139C6.78247 8.10533 8.00082 6.87242 9.49898 6.87242C10.9971 6.87242 12.2155 8.10533 12.2155 9.62139Z" fill="#BDBDBD"/>
</svg>
