<svg width="18" height="20" viewBox="0 0 18 20" fill="none" xmlns="http://www.w3.org/2000/svg">
<path d="M10.7822 18.6333H5.61719C6.86012 20.4542 9.5375 20.4567 10.7822 18.6333Z" fill="#3E3E3E"/>
<path d="M14.736 12.0733C11.7807 12.4317 9.21513 10.1172 9.21513 7.18764C9.21513 5.58447 9.98546 4.15786 11.1757 3.25862C10.2827 2.79884 9.27099 2.53906 8.19947 2.53906C4.60248 2.53906 1.67583 5.46572 1.67583 9.0627V11.7772C1.67583 12.6917 1.31957 13.5511 0.673064 14.1976C0.312115 14.559 0.113281 15.0391 0.113281 15.5496C0.113281 16.604 0.97112 17.4614 2.02506 17.4614H14.3739C15.4278 17.4614 16.2857 16.604 16.2857 15.5496C16.2857 15.0391 16.0868 14.559 15.7259 14.1976C15.1497 13.6214 14.804 12.8761 14.736 12.0733Z" fill="#3E3E3E"/>
<path d="M10.0185 1.58442C9.89542 0.690647 9.12704 0 8.19967 0C7.27229 0 6.50391 0.690647 6.38086 1.58442C7.57187 1.29485 8.82664 1.29465 10.0185 1.58442Z" fill="#3E3E3E"/>
<path d="M14.1368 3.4375C12.0657 3.4375 10.3867 5.1165 10.3867 7.18762C10.3867 9.25874 12.0657 10.9377 14.1368 10.9377C16.208 10.9377 17.887 9.25874 17.887 7.18762C17.887 5.1165 16.208 3.4375 14.1368 3.4375ZM14.7228 8.43765C14.7228 8.76126 14.4604 9.02361 14.1368 9.02361C13.8132 9.02361 13.5509 8.76126 13.5509 8.43765V6.83487C13.3222 6.85007 13.0965 6.72975 12.9877 6.51213C12.843 6.22266 12.9603 5.8707 13.2498 5.72597L13.8748 5.41346C14.2632 5.21931 14.7228 5.50151 14.7228 5.93758V8.43765Z" fill="#DE0404"/>
</svg>
