<svg width="18" height="18" viewBox="0 0 18 18" fill="none" xmlns="http://www.w3.org/2000/svg">
<path d="M14.6667 5.78571H14.3333V5.14286C14.3333 2.30786 11.94 0 9 0C6.06 0 3.66667 2.30786 3.66667 5.14286V5.78571H3.33333C1.49667 5.78571 0 7.22893 0 9V14.7857C0 16.5568 1.49667 18 3.33333 18H14.6667C16.5033 18 18 16.5568 18 14.7857V9C18 7.22893 16.5033 5.78571 14.6667 5.78571ZM5 5.14286C5 3.015 6.79333 1.28571 9 1.28571C11.2067 1.28571 13 3.015 13 5.14286V5.78571H5V5.14286ZM5 12.8571C4.45 12.8571 4 12.4232 4 11.8929C4 11.3625 4.45 10.9286 5 10.9286C5.55 10.9286 6 11.3625 6 11.8929C6 12.4232 5.55 12.8571 5 12.8571ZM9 12.8571C8.45 12.8571 8 12.4232 8 11.8929C8 11.3625 8.45 10.9286 9 10.9286C9.55 10.9286 10 11.3625 10 11.8929C10 12.4232 9.55 12.8571 9 12.8571ZM13 12.8571C12.45 12.8571 12 12.4232 12 11.8929C12 11.3625 12.45 10.9286 13 10.9286C13.55 10.9286 14 11.3625 14 11.8929C14 12.4232 13.55 12.8571 13 12.8571Z" fill="#3E3E3E"/>
</svg>
