<svg width="18" height="18" viewBox="0 0 18 18" fill="none" xmlns="http://www.w3.org/2000/svg">
<g id="Frame" clip-path="url(#clip0_749_574)">
<g id="Clip path group">
<mask id="mask0_749_574" style="mask-type:luminance" maskUnits="userSpaceOnUse" x="0" y="0" width="18" height="18">
<g id="clip0_107_5528">
<path id="Vector" d="M0 0H18V18H0V0Z" fill="white"/>
</g>
</mask>
<g mask="url(#mask0_749_574)">
<g id="Group">
<path id="Vector_2" d="M14.8073 13.5338L11.934 12.8153L11.7682 12.1515C13.7505 11.8177 14.7705 11.2238 14.8155 11.1975C14.922 11.1353 14.988 11.022 14.997 10.899C15.0052 10.776 14.9505 10.6552 14.8538 10.578C14.8403 10.5675 13.5 9.4605 13.5 5.625C13.5 2.39025 12.7432 0.75 11.25 0.75H11.0287C10.4902 0.2295 10.086 0 9 0C7.59075 0 4.5 1.41675 4.5 5.625C4.5 9.4605 3.15975 10.5675 3.15 10.575C3.05025 10.65 2.994 10.7692 3 10.8937C3.00675 11.019 3.07425 11.1315 3.1815 11.196C3.2265 11.223 4.23675 11.82 6.231 12.153L6.06525 12.8153L3.192 13.5338C1.3125 14.004 0 15.6855 0 17.625C0 17.832 0.168 18 0.375 18H17.625C17.832 18 18 17.8305 18 17.6235C18 15.6855 16.6875 14.004 14.8073 13.5338Z" fill="#DADADA"/>
</g>
</g>
</g>
</g>
<defs>
<clipPath id="clip0_749_574">
<rect width="18" height="18" fill="white"/>
</clipPath>
</defs>
</svg>
