<svg width="12" height="18" viewBox="0 0 12 18" fill="none" xmlns="http://www.w3.org/2000/svg">
<path fill-rule="evenodd" clip-rule="evenodd" d="M2.11429 1.6875V14.1119H9.88667V1.6875C9.88656 1.5384 9.8273 1.39544 9.72191 1.28999C9.61651 1.18453 9.47358 1.1252 9.32449 1.125H2.67644C2.52735 1.1252 2.38442 1.18453 2.27902 1.28999C2.17363 1.39544 2.11437 1.5384 2.11426 1.6875H2.11429ZM0.989293 16.3127V1.6875C0.989786 1.24015 1.16769 0.811265 1.48398 0.494914C1.80028 0.178562 2.22913 0.000576914 2.67648 0L9.32452 0C9.77186 0.000576985 10.2007 0.178567 10.517 0.494922C10.8332 0.811278 11.0111 1.24017 11.0116 1.6875V16.3127C11.0111 16.76 10.8332 17.1889 10.5169 17.5053C10.2007 17.8216 9.77185 17.9996 9.32452 18.0002H2.67648C2.22913 17.9996 1.80028 17.8216 1.48398 17.5053C1.16768 17.1889 0.989769 16.7601 0.989258 16.3127L0.989293 16.3127ZM6.14577 3.03398C5.99658 3.03398 5.85351 2.97472 5.74802 2.86923C5.64253 2.76374 5.58327 2.62067 5.58327 2.47148C5.58327 2.3223 5.64253 2.17923 5.74802 2.07374C5.85351 1.96825 5.99658 1.90898 6.14577 1.90898H7.5993C7.74849 1.90898 7.89156 1.96825 7.99705 2.07374C8.10254 2.17923 8.1618 2.3223 8.1618 2.47148C8.1618 2.62067 8.10254 2.76374 7.99705 2.86923C7.89156 2.97472 7.74849 3.03398 7.5993 3.03398H6.14577ZM4.40149 3.03398C4.25223 3.03394 4.10909 2.97461 4.00357 2.86904C3.89806 2.76347 3.83879 2.62031 3.83881 2.47105C3.83884 2.32178 3.89815 2.17864 4.0037 2.07311C4.10925 1.96757 4.2524 1.90828 4.40166 1.90828C4.55093 1.90828 4.69408 1.96757 4.79963 2.07311C4.90518 2.17864 4.96449 2.32178 4.96452 2.47105C4.96454 2.62031 4.90527 2.76347 4.79975 2.86904C4.69423 2.97461 4.5511 3.03394 4.40184 3.03398H4.40149ZM6.00039 15.4934C5.88914 15.4934 5.78039 15.5264 5.68789 15.5882C5.59538 15.65 5.52329 15.7378 5.48071 15.8406C5.43814 15.9434 5.427 16.0565 5.4487 16.1656C5.47041 16.2747 5.52398 16.3749 5.60265 16.4536C5.68131 16.5323 5.78154 16.5858 5.89066 16.6076C5.99977 16.6293 6.11287 16.6181 6.21565 16.5755C6.31844 16.533 6.40629 16.4609 6.4681 16.3684C6.52991 16.2759 6.56289 16.1671 6.56289 16.0559C6.56289 15.9067 6.50363 15.7636 6.39814 15.6581C6.29265 15.5526 6.14958 15.4934 6.00039 15.4934Z" fill="#DADADA"/>
</svg>
