<svg width="14" height="14" viewBox="0 0 14 14" fill="none" xmlns="http://www.w3.org/2000/svg">
<g id="Frame" clip-path="url(#clip0_818_422)">
<g id="Group">
<path id="Vector" d="M4.86406 0.000919342C5.13992 0.000919342 5.40449 0.111364 5.59967 0.307995L6.6337 1.48399L4.0868 4.36799C3.69464 4.81942 3.47771 5.39878 3.47611 5.99899V12.6H1.74117C1.46509 12.6 1.20031 12.4894 1.0051 12.2925C0.80988 12.0955 0.700204 11.8285 0.700204 11.55V4.63399C0.699173 4.37578 0.793136 4.12635 0.963915 3.93399L3.39977 1.13399L4.12845 0.307995C4.32363 0.111364 4.58821 0.000919342 4.86406 0.000919342Z" fill="#D1D1D1"/>
<path id="Vector_2" fill-rule="evenodd" clip-rule="evenodd" d="M9.8279 1.7071L13.0333 5.29836C13.2062 5.49074 13.3014 5.74018 13.3004 5.99841V12.9499C13.3004 13.2284 13.1893 13.4955 12.9916 13.6924C12.7938 13.8894 12.5256 14 12.246 14H5.91965C5.64614 13.9909 5.38689 13.8763 5.19669 13.6803C5.0065 13.4844 4.90025 13.2224 4.9004 12.9499V6.03342C4.89936 5.77518 4.99454 5.52574 5.16751 5.33336L7.6348 2.53316L8.33774 1.7071C8.53542 1.51045 8.80338 1.4 9.08282 1.4C9.36226 1.4 9.63022 1.51045 9.8279 1.7071ZM8.49706 5.77244C8.67045 5.88783 8.87429 5.94941 9.08282 5.94941C9.36247 5.94941 9.63064 5.83878 9.82839 5.64185C10.0261 5.44492 10.1372 5.17783 10.1372 4.89934C10.1372 4.69165 10.0754 4.48863 9.9595 4.31594C9.84365 4.14326 9.67901 4.00867 9.4863 3.92919C9.29366 3.84971 9.08163 3.82892 8.87709 3.86943C8.67255 3.90995 8.48474 4.00996 8.33725 4.15682C8.18976 4.30367 8.08938 4.49078 8.04871 4.69447C8.00797 4.89817 8.0289 5.1093 8.1087 5.30118C8.1885 5.49306 8.3236 5.65706 8.49706 5.77244Z" fill="#D1D1D1"/>
</g>
</g>
<defs>
<clipPath id="clip0_818_422">
<rect width="14" height="14" fill="white"/>
</clipPath>
</defs>
</svg>
