<svg width="26" height="27" viewBox="0 0 26 27" fill="none" xmlns="http://www.w3.org/2000/svg">
<g filter="url(#filter0_d_476_238)">
<path d="M12.6312 18.4124C9.09375 15.4374 9.13125 10.7187 9.3125 8.8249C9.3625 8.31865 9.5625 7.86865 9.8625 7.49365H6.75C5.925 7.49365 5.925 6.24365 6.75 6.24365H9.875C10.2188 6.24365 10.5 6.5249 10.5 6.86865C10.5 6.89365 10.4875 6.91865 10.4875 6.94365C10.7812 6.7624 11.1062 6.63115 11.4625 6.58115C13.1812 6.3374 14.25 5.7499 14.7313 5.4249C15.1438 5.14365 15.625 4.99365 16.125 4.99365V3.11865C16.125 2.08115 15.2875 1.24365 14.25 1.24365H6.125C5.0875 1.24365 4.25 2.08115 4.25 3.11865V16.8749C4.25 17.9124 5.0875 18.7499 6.125 18.7499H13.0875C12.9375 18.6374 12.775 18.5374 12.6312 18.4124ZM6.75 3.1249H13C13.825 3.1249 13.825 4.3749 13 4.3749H6.75C5.925 4.3749 5.925 3.1249 6.75 3.1249ZM6.75 9.3749H8.625C9.45 9.3749 9.45 10.6249 8.625 10.6249H6.75C5.925 10.6249 5.925 9.3749 6.75 9.3749ZM6.75 12.4999H8.625C9.45 12.4999 9.45 13.7499 8.625 13.7499H6.75C5.925 13.7499 5.925 12.4999 6.75 12.4999ZM9.25 16.8749H6.75C5.925 16.8749 5.925 15.6249 6.75 15.6249H9.25C10.075 15.6249 10.075 16.8749 9.25 16.8749Z" fill="#3E3E3E"/>
<path d="M21.6939 8.9498C21.6377 8.36855 21.1939 7.90605 20.6127 7.8248C18.6377 7.54355 17.3877 6.85605 16.8189 6.46855C16.3939 6.18105 15.8502 6.18105 15.4314 6.46855C14.8564 6.85605 13.6064 7.54355 11.6377 7.8248C11.0564 7.90605 10.6127 8.36855 10.5564 8.9498C10.1814 12.9123 11.4752 16.8248 15.1064 18.5248C15.7564 18.8311 16.4939 18.8311 17.1439 18.5248C20.7752 16.8123 22.0627 12.8998 21.6939 8.9498ZM18.4439 11.6936L15.9439 14.1936C15.7002 14.4373 15.3064 14.4373 15.0627 14.1936L13.8127 12.9436C13.2252 12.3561 14.1127 11.4748 14.6939 12.0623L15.5002 12.8686L17.5564 10.8123C18.1439 10.2248 19.0252 11.1123 18.4377 11.6936H18.4439Z" fill="#3E3E3E"/>
</g>
<defs>
<filter id="filter0_d_476_238" x="-1" y="0" width="28" height="28" filterUnits="userSpaceOnUse" color-interpolation-filters="sRGB">
<feFlood flood-opacity="0" result="BackgroundImageFix"/>
<feColorMatrix in="SourceAlpha" type="matrix" values="0 0 0 0 0 0 0 0 0 0 0 0 0 0 0 0 0 0 127 0" result="hardAlpha"/>
<feOffset dy="4"/>
<feGaussianBlur stdDeviation="2"/>
<feComposite in2="hardAlpha" operator="out"/>
<feColorMatrix type="matrix" values="0 0 0 0 0 0 0 0 0 0 0 0 0 0 0 0 0 0 0.25 0"/>
<feBlend mode="normal" in2="BackgroundImageFix" result="effect1_dropShadow_476_238"/>
<feBlend mode="normal" in="SourceGraphic" in2="effect1_dropShadow_476_238" result="shape"/>
</filter>
</defs>
</svg>
