<svg width="13" height="16" viewBox="0 0 13 16" fill="none" xmlns="http://www.w3.org/2000/svg">
<path id="Vector" fill-rule="evenodd" clip-rule="evenodd" d="M1.9033 1.88744C4.44128 -0.63048 8.55726 -0.628337 11.0947 1.88901C13.4861 4.26152 13.6468 8.05849 11.4612 10.62L7.1117 15.7178C6.95884 15.8969 6.73427 16.0002 6.49771 16C6.26115 15.9998 6.03665 15.8963 5.88404 15.7171L1.53328 10.6052C-0.645465 8.04541 -0.484642 4.25651 1.9033 1.88744ZM3.28307 6.43088C3.28307 4.66925 4.72253 3.24116 6.49819 3.24116C8.27382 3.24116 9.71335 4.66925 9.71335 6.43088C9.71335 8.19254 8.27382 9.62057 6.49819 9.62057C4.72253 9.62057 3.28307 8.19254 3.28307 6.43088Z" fill="#D80000"/>
</svg>
