<svg width="22" height="18" viewBox="0 0 22 18" fill="none" xmlns="http://www.w3.org/2000/svg">
<path fill-rule="evenodd" clip-rule="evenodd" d="M18.6969 13.4999C18.0371 13.4999 17.5974 13.9499 17.5974 14.6249C17.5974 15.2999 17.1576 15.7498 16.4979 15.7498H5.50214C4.84238 15.7498 4.40262 15.2999 4.40262 14.6249V11.2498H5.50214C5.94191 11.2498 6.38191 11.0247 6.49167 10.5748C6.71167 10.1249 6.60167 9.6747 6.27166 9.33732L4.07262 7.08744C3.63286 6.63752 2.9731 6.63752 2.53334 7.08744L0.334293 9.33732C0.0045338 9.6747 -0.105467 10.1249 0.11429 10.5748C0.224292 11.0247 0.664051 11.2498 1.10381 11.2498H2.20333V14.6249C2.20333 16.5374 3.63286 17.9999 5.50214 17.9999H16.4979C18.3671 17.9999 19.7967 16.5374 19.7967 14.6249C19.7964 13.9499 19.3567 13.4999 18.6969 13.4999Z" fill="white"/>
<path fill-rule="evenodd" clip-rule="evenodd" d="M20.8962 6.75013H19.7967V3.37506C19.7967 1.46257 18.3672 0 16.4979 0H5.50218C3.63289 0 2.20337 1.46257 2.20337 3.37506C2.20337 4.05008 2.64313 4.5 3.30289 4.5C3.96265 4.5 4.40241 4.05008 4.40241 3.37506C4.40241 2.70005 4.84217 2.25013 5.50194 2.25013H16.4976C17.1574 2.25013 17.5972 2.70005 17.5972 3.37506V6.75013H16.4976C16.0579 6.75013 15.6179 6.97521 15.5081 7.42514C15.2881 7.87506 15.3981 8.32524 15.7281 8.66262L17.9272 10.9125C18.1472 11.1376 18.4769 11.2499 18.6969 11.2499C18.9169 11.2499 19.2467 11.1373 19.4667 10.9125L21.6657 8.66262C21.9955 8.32524 22.1055 7.87506 21.8857 7.42514C21.7757 6.97496 21.336 6.75013 20.8962 6.75013Z" fill="white"/>
</svg>
