<svg width="18" height="18" viewBox="0 0 18 18" fill="none" xmlns="http://www.w3.org/2000/svg">
<path d="M4.98218 17.5718C3.93707 17.5718 3.12014 16.67 3.22313 15.6299L3.75024 10.3062H6.21412L6.74123 15.6299C6.84422 16.67 6.02726 17.5718 4.98218 17.5718Z" fill="#F69AC7"/>
<path d="M6.21415 10.3062H4.94873V17.5709C4.95991 17.5711 4.97096 17.5718 4.98221 17.5718C6.02732 17.5718 6.84426 16.67 6.74126 15.6299L6.21415 10.3062Z" fill="#F05CA5"/>
<path d="M6.65618 10.8082H3.30797C2.47717 10.8082 1.80127 10.1323 1.80127 9.30148V1.93541C1.80127 1.10461 2.47717 0.428711 3.30797 0.428711H6.65618C7.48697 0.428711 8.16288 1.10461 8.16288 1.93541V9.30148C8.16288 10.1323 7.48697 10.8082 6.65618 10.8082Z" fill="#635550"/>
<path d="M6.65632 0.428711H4.94873V10.8082H6.65632C7.48711 10.8082 8.16302 10.1323 8.16302 9.30148V1.93541C8.16302 1.10461 7.48711 0.428711 6.65632 0.428711Z" fill="#3D3532"/>
<path d="M8.66511 3.10749H6.991C6.71364 3.10749 6.48877 2.88263 6.48877 2.60526C6.48877 2.32789 6.71364 2.10303 6.991 2.10303H8.66511C8.94247 2.10303 9.16734 2.32789 9.16734 2.60526C9.16734 2.88263 8.94247 3.10749 8.66511 3.10749Z" fill="#635550"/>
<path d="M8.66511 5.11628H6.991C6.71364 5.11628 6.48877 4.89141 6.48877 4.61405C6.48877 4.33668 6.71364 4.11182 6.991 4.11182H8.66511C8.94247 4.11182 9.16734 4.33668 9.16734 4.61405C9.16734 4.89141 8.94247 5.11628 8.66511 5.11628Z" fill="#635550"/>
<path d="M8.66511 7.12507H6.991C6.71364 7.12507 6.48877 6.9002 6.48877 6.62284C6.48877 6.34547 6.71364 6.12061 6.991 6.12061H8.66511C8.94247 6.12061 9.16734 6.34547 9.16734 6.62284C9.16734 6.9002 8.94247 7.12507 8.66511 7.12507Z" fill="#635550"/>
<path d="M2.97321 3.10749H1.29911C1.02174 3.10749 0.796875 2.88263 0.796875 2.60526C0.796875 2.32789 1.02174 2.10303 1.29911 2.10303H2.97321C3.25058 2.10303 3.47545 2.32789 3.47545 2.60526C3.47545 2.88263 3.25058 3.10749 2.97321 3.10749Z" fill="#7F6D67"/>
<path d="M2.97321 5.11628H1.29911C1.02174 5.11628 0.796875 4.89141 0.796875 4.61405C0.796875 4.33668 1.02174 4.11182 1.29911 4.11182H2.97321C3.25058 4.11182 3.47545 4.33668 3.47545 4.61405C3.47545 4.89141 3.25058 5.11628 2.97321 5.11628Z" fill="#7F6D67"/>
<path d="M2.97321 7.12556H1.29911C1.02174 7.12556 0.796875 6.90069 0.796875 6.62333C0.796875 6.34596 1.02174 6.12109 1.29911 6.12109H2.97321C3.25058 6.12109 3.47545 6.34596 3.47545 6.62333C3.47545 6.90069 3.25058 7.12556 2.97321 7.12556Z" fill="#7F6D67"/>
<path d="M4.98221 3.10749C5.25959 3.10749 5.48444 2.88263 5.48444 2.60526C5.48444 2.32788 5.25959 2.10303 4.98221 2.10303C4.70484 2.10303 4.47998 2.32788 4.47998 2.60526C4.47998 2.88263 4.70484 3.10749 4.98221 3.10749Z" fill="#7F6D67"/>
<path d="M4.98221 5.11628C5.25959 5.11628 5.48444 4.89142 5.48444 4.61405C5.48444 4.33667 5.25959 4.11182 4.98221 4.11182C4.70484 4.11182 4.47998 4.33667 4.47998 4.61405C4.47998 4.89142 4.70484 5.11628 4.98221 5.11628Z" fill="#7F6D67"/>
<path d="M4.98221 7.12556C5.25959 7.12556 5.48444 6.9007 5.48444 6.62333C5.48444 6.34595 5.25959 6.12109 4.98221 6.12109C4.70484 6.12109 4.47998 6.34595 4.47998 6.62333C4.47998 6.9007 4.70484 7.12556 4.98221 7.12556Z" fill="#7F6D67"/>
<path d="M8.66511 9.13386H6.991C6.71364 9.13386 6.48877 8.90899 6.48877 8.63163C6.48877 8.35426 6.71364 8.12939 6.991 8.12939H8.66511C8.94247 8.12939 9.16734 8.35426 9.16734 8.63163C9.16734 8.90899 8.94247 9.13386 8.66511 9.13386Z" fill="#635550"/>
<path d="M2.97321 9.13386H1.29911C1.02174 9.13386 0.796875 8.90899 0.796875 8.63163C0.796875 8.35426 1.02174 8.12939 1.29911 8.12939H2.97321C3.25058 8.12939 3.47545 8.35426 3.47545 8.63163C3.47545 8.90899 3.25058 9.13386 2.97321 9.13386Z" fill="#7F6D67"/>
<path d="M4.98221 9.13386C5.25959 9.13386 5.48444 8.909 5.48444 8.63163C5.48444 8.35425 5.25959 8.12939 4.98221 8.12939C4.70484 8.12939 4.47998 8.35425 4.47998 8.63163C4.47998 8.909 4.70484 9.13386 4.98221 9.13386Z" fill="#7F6D67"/>
<path d="M4.98221 2.10303C4.9709 2.10303 4.95985 2.104 4.94873 2.10473V3.10582C4.95985 3.10655 4.9709 3.10753 4.98221 3.10753C5.25958 3.10753 5.48444 2.88266 5.48444 2.60529C5.48444 2.32793 5.25958 2.10303 4.98221 2.10303Z" fill="#635550"/>
<path d="M4.98221 4.11182C4.9709 4.11182 4.95985 4.11279 4.94873 4.11352V5.11461C4.95985 5.11534 4.9709 5.11631 4.98221 5.11631C5.25958 5.11631 5.48444 4.89145 5.48444 4.61408C5.48444 4.33672 5.25958 4.11182 4.98221 4.11182Z" fill="#635550"/>
<path d="M4.98221 6.12061C4.9709 6.12061 4.95985 6.12158 4.94873 6.12231V7.1234C4.95985 7.12413 4.9709 7.1251 4.98221 7.1251C5.25958 7.1251 5.48444 6.90024 5.48444 6.62287C5.48444 6.34551 5.25958 6.12061 4.98221 6.12061Z" fill="#635550"/>
<path d="M4.98221 8.12939C4.9709 8.12939 4.95985 8.13037 4.94873 8.1311V9.13219C4.95985 9.13292 4.9709 9.13389 4.98221 9.13389C5.25958 9.13389 5.48444 8.90903 5.48444 8.63166C5.48444 8.35429 5.25958 8.12939 4.98221 8.12939Z" fill="#635550"/>
<path d="M13.6876 2.10261H11.0091C10.7317 2.10261 10.5068 1.87774 10.5068 1.60038C10.5068 1.32301 10.7317 1.09814 11.0091 1.09814H13.6876C13.965 1.09814 14.1899 1.32301 14.1899 1.60038C14.1899 1.87774 13.965 2.10261 13.6876 2.10261Z" fill="#F05CA5"/>
<path d="M13.6876 4.1114H11.0091C10.7317 4.1114 10.5068 3.88653 10.5068 3.60917C10.5068 3.3318 10.7317 3.10693 11.0091 3.10693H13.6876C13.965 3.10693 14.1899 3.3318 14.1899 3.60917C14.1899 3.88653 13.965 4.1114 13.6876 4.1114Z" fill="#F05CA5"/>
<path d="M13.6876 6.12068H11.0091C10.7317 6.12068 10.5068 5.89581 10.5068 5.61844C10.5068 5.34108 10.7317 5.11621 11.0091 5.11621H13.6876C13.965 5.11621 14.1899 5.34108 14.1899 5.61844C14.1899 5.89581 13.965 6.12068 13.6876 6.12068Z" fill="#F05CA5"/>
<path d="M13.6876 8.12946H11.0091C10.7317 8.12946 10.5068 7.9046 10.5068 7.62723C10.5068 7.34987 10.7317 7.125 11.0091 7.125H13.6876C13.965 7.125 14.1899 7.34987 14.1899 7.62723C14.1899 7.9046 13.965 8.12946 13.6876 8.12946Z" fill="#F05CA5"/>
<path d="M13.6876 10.1383H11.0091C10.7317 10.1383 10.5068 9.91339 10.5068 9.63602C10.5068 9.35866 10.7317 9.13379 11.0091 9.13379H13.6876C13.965 9.13379 14.1899 9.35866 14.1899 9.63602C14.1899 9.91339 13.965 10.1383 13.6876 10.1383Z" fill="#F05CA5"/>
<path d="M15.1942 17.5718C14.3257 17.5718 13.6417 16.8315 13.7103 15.9657L14.1586 10.3062H16.2297L16.678 15.9657C16.7466 16.8315 16.0626 17.5718 15.1942 17.5718Z" fill="#635550"/>
<path d="M16.2299 10.3062H15.1943V17.5718C16.0628 17.5718 16.7468 16.8315 16.6782 15.9657L16.2299 10.3062Z" fill="#3D3532"/>
<path d="M16.0315 10.8082H14.3574C13.7113 10.8082 13.1855 10.2825 13.1855 9.6363V1.60059C13.1855 0.954414 13.7113 0.428711 14.3574 0.428711H16.0315C16.6777 0.428711 17.2034 0.954414 17.2034 1.60059V9.6363C17.2034 10.2825 16.6777 10.8082 16.0315 10.8082Z" fill="#F69AC7"/>
<path d="M16.0314 0.428711H15.1943V10.8082H16.0314C16.6776 10.8082 17.2033 10.2825 17.2033 9.6363V1.60059C17.2033 0.954414 16.6776 0.428711 16.0314 0.428711Z" fill="#F05CA5"/>
</svg>
