<svg width="21" height="21" viewBox="0 0 21 21" fill="none" xmlns="http://www.w3.org/2000/svg">
<path d="M8.57079 17.143C6.87554 17.1429 5.21839 16.64 3.80891 15.6981C2.39943 14.7562 1.30091 13.4174 0.652263 11.8512C0.00361694 10.2849 -0.166024 8.56151 0.164792 6.89884C0.495608 5.23618 1.31202 3.70895 2.5108 2.51028C3.70958 1.31161 5.23687 0.495322 6.89957 0.164648C8.56226 -0.166025 10.2857 0.00376348 11.8519 0.652544C13.4181 1.30132 14.7567 2.39996 15.6985 3.80952C16.6403 5.21908 17.143 6.87627 17.143 8.57152C17.1405 10.8442 16.2365 13.023 14.6294 14.6299C13.0223 16.2369 10.8434 17.1407 8.57079 17.143ZM8.57079 3.00001C7.46888 3.00015 6.39175 3.32703 5.47562 3.93933C4.55948 4.55162 3.84548 5.42182 3.42389 6.43989C3.00231 7.45797 2.89208 8.57819 3.10713 9.65891C3.32219 10.7396 3.85289 11.7323 4.63211 12.5114C5.41133 13.2906 6.40408 13.8211 7.48483 14.036C8.56557 14.251 9.68578 14.1406 10.7038 13.7189C11.7218 13.2971 12.5919 12.583 13.2041 11.6668C13.8163 10.7506 14.143 9.67344 14.143 8.57152C14.1415 7.0942 13.5539 5.67783 12.5092 4.63328C11.4646 3.58872 10.0481 3.00132 8.57079 3.00001Z" fill="#D0D0D0"/>
<path d="M19.4998 21C19.3028 21.0003 19.1077 20.9616 18.9257 20.8861C18.7437 20.8107 18.5784 20.7001 18.4393 20.5605L12.5125 14.6331C12.3733 14.4939 12.2628 14.3285 12.1874 14.1465C12.112 13.9646 12.0732 13.7695 12.0732 13.5726C12.0732 13.3756 12.112 13.1806 12.1874 12.9986C12.2628 12.8167 12.3733 12.6513 12.5125 12.512C12.6518 12.3728 12.8171 12.2623 12.9991 12.1869C13.1811 12.1115 13.3761 12.0728 13.5731 12.0728C13.77 12.0728 13.9651 12.1115 14.147 12.1869C14.329 12.2623 14.4943 12.3728 14.6336 12.512L20.5603 18.4396C20.77 18.6493 20.9128 18.9166 20.9707 19.2075C21.0285 19.4984 20.9988 19.8 20.8853 20.074C20.7718 20.3481 20.5796 20.5823 20.333 20.7472C20.0864 20.912 19.7964 21 19.4998 21Z" fill="#D0D0D0"/>
</svg>
