<svg width="22" height="20" viewBox="0 0 22 20" fill="none" xmlns="http://www.w3.org/2000/svg">
<path d="M5.49622 17.7692C5.59896 17.8577 5.67245 17.9757 5.70685 18.1074C5.74125 18.2391 5.73492 18.3782 5.68873 18.5062C5.64253 18.6341 5.55866 18.7449 5.44832 18.8235C5.33799 18.9022 5.20644 18.9451 5.07127 18.9464C4.91613 18.9467 4.76578 18.8923 4.64632 18.7926C2.75895 17.2343 1.50517 15.0323 1.12295 12.6044C0.740734 10.1765 1.25667 7.69172 2.57285 5.62169C3.88903 3.55166 5.91383 2.04042 8.26298 1.3748C10.6121 0.709184 13.1221 0.935512 15.3166 2.01083C15.4759 2.08711 15.5987 2.22404 15.6578 2.3915C15.717 2.55895 15.7077 2.74322 15.6319 2.90376C15.5562 3.0643 15.4203 3.18797 15.2541 3.24755C15.0878 3.30713 14.9049 3.29775 14.7455 3.22147C12.8428 2.2845 10.6646 2.08487 8.62531 2.66057C6.58601 3.23626 4.82799 4.5471 3.68576 6.34364C2.54354 8.14019 2.09684 10.297 2.43067 12.4038C2.7645 14.5106 3.85555 16.4201 5.49622 17.7692ZM20.0441 6.79988C20.0108 6.71438 19.9603 6.63671 19.8959 6.57172C19.8314 6.50673 19.7544 6.4558 19.6696 6.42212C19.5847 6.38844 19.4939 6.37272 19.4028 6.37595C19.3116 6.37917 19.2221 6.40128 19.1398 6.44088C19.0576 6.48048 18.9843 6.53673 18.9245 6.60612C18.8648 6.67551 18.8198 6.75656 18.7925 6.84421C18.7653 6.93186 18.7562 7.02423 18.7659 7.11557C18.7756 7.20691 18.8039 7.29526 18.8489 7.37511C19.674 9.12593 19.8947 11.1042 19.4761 12.9959C19.0574 14.8875 18.0234 16.584 16.5383 17.816C16.433 17.9039 16.3572 18.0224 16.3213 18.1553C16.2854 18.2882 16.291 18.429 16.3375 18.5585C16.384 18.688 16.4691 18.7999 16.581 18.8789C16.693 18.9579 16.8265 19.0002 16.9632 18.9999C17.1167 19.0022 17.2656 18.9474 17.3815 18.8461C19.0917 17.4236 20.2817 15.4669 20.7628 13.286C21.2439 11.1051 20.9887 8.82478 20.0375 6.80657L20.0441 6.79988ZM13.3246 9.75626C13.5656 10.1608 13.6962 10.6223 13.7031 11.094C13.7031 11.6231 13.5473 12.1404 13.2555 12.5804C12.9636 13.0204 12.5488 13.3633 12.0635 13.5658C11.5782 13.7683 11.0442 13.8213 10.529 13.718C10.0138 13.6148 9.54054 13.36 9.1691 12.9858C8.79766 12.6116 8.54471 12.1349 8.44223 11.6159C8.33975 11.0969 8.39234 10.559 8.59336 10.0701C8.79439 9.58125 9.1348 9.16341 9.57157 8.86942C10.0083 8.57544 10.5218 8.41853 11.0471 8.41853C11.5159 8.42186 11.975 8.55365 12.3751 8.79978L18.6446 2.51096C18.7696 2.38501 18.9392 2.31425 19.116 2.31425C19.2928 2.31425 19.4624 2.38501 19.5874 2.51096C19.7125 2.63691 19.7827 2.80773 19.7827 2.98585C19.7827 3.16397 19.7125 3.33479 19.5874 3.46074L13.3246 9.75626ZM12.3751 11.1074C12.3754 10.7541 12.2369 10.4151 11.99 10.1643C11.7735 9.94439 11.488 9.80699 11.1822 9.7755C10.8763 9.74401 10.5691 9.82038 10.313 9.99158C10.0568 10.1628 9.86753 10.4182 9.77745 10.7143C9.68737 11.0104 9.70206 11.3288 9.81901 11.6152C9.93596 11.9016 10.1479 12.1382 10.4187 12.2848C10.6896 12.4313 11.0025 12.4787 11.3041 12.4187C11.6057 12.3588 11.8773 12.1953 12.0726 11.9562C12.268 11.717 12.3749 11.417 12.3751 11.1074Z" fill="#FFFEFE" stroke="#FFFEFE" stroke-width="0.8"/>
</svg>
