<svg width="21" height="22" viewBox="0 0 21 22" fill="none" xmlns="http://www.w3.org/2000/svg">
<path d="M5.19521 18.1688L5.19521 18.1688H5.19422H3.28125C2.42427 18.1688 1.60239 17.8283 0.996411 17.2224C0.390434 16.6164 0.05 15.7945 0.05 14.9375V7.06251C0.05 6.20553 0.390434 5.38365 0.996411 4.77768C1.60239 4.1717 2.42427 3.83126 3.28125 3.83126L5.25 3.83127L5.25024 3.83126C5.42692 3.83042 5.60181 3.86667 5.76359 3.93767C5.92538 4.00868 6.07047 4.11284 6.18946 4.24344C6.30846 4.37404 6.39872 4.52816 6.45441 4.69584C6.51002 4.86331 6.52991 5.04058 6.5128 5.2162C6.47289 5.53534 6.31626 5.82842 6.07309 6.03893C5.82975 6.24959 5.517 6.36265 5.19521 6.35627L5.19521 6.35626H5.19422H3.28125C3.09394 6.35626 2.9143 6.43067 2.78185 6.56312C2.64941 6.69557 2.575 6.87521 2.575 7.06251V14.9375C2.575 15.1248 2.64941 15.3045 2.78185 15.4369C2.9143 15.5694 3.09394 15.6438 3.28125 15.6438H5.25L5.25024 15.6438C5.42692 15.6429 5.60181 15.6792 5.76359 15.7502C5.92538 15.8212 6.07047 15.9253 6.18946 16.0559C6.30846 16.1865 6.39872 16.3407 6.45441 16.5083C6.51002 16.6758 6.52991 16.8531 6.5128 17.0287C6.47289 17.3478 6.31626 17.6409 6.07309 17.8514C5.82975 18.0621 5.517 18.1751 5.19521 18.1688Z" fill="#FFFEFE" stroke="#22242A" stroke-width="0.1"/>
<path d="M15.7498 3.83126H15.75H17.7188C18.1431 3.83126 18.5633 3.91484 18.9553 4.07723C19.3474 4.23961 19.7036 4.47763 20.0036 4.77768C20.3037 5.07773 20.5417 5.43393 20.7041 5.82597C20.8664 6.218 20.95 6.63818 20.95 7.06251V14.9375C20.95 15.3618 20.8664 15.782 20.7041 16.1741C20.5417 16.5661 20.3037 16.9223 20.0036 17.2224C19.7036 17.5224 19.3474 17.7604 18.9553 17.9228C18.5633 18.0852 18.1431 18.1688 17.7188 18.1688L15.8058 18.1688L15.8048 18.1688C15.483 18.1751 15.1703 18.0621 14.9269 17.8514C14.6838 17.6409 14.5271 17.3478 14.4872 17.0287C14.4701 16.8531 14.49 16.6758 14.5456 16.5083C14.6013 16.3407 14.6916 16.1865 14.8106 16.0559C14.9296 15.9253 15.0746 15.8212 15.2364 15.7502C15.3982 15.6792 15.5731 15.6429 15.7498 15.6438H15.75H17.7188C17.9061 15.6438 18.0857 15.5694 18.2182 15.4369C18.3506 15.3045 18.425 15.1248 18.425 14.9375V7.06251C18.425 6.87521 18.3506 6.69557 18.2182 6.56312C18.0857 6.43067 17.9061 6.35626 17.7188 6.35626H15.8058V6.35625L15.8048 6.35627C15.483 6.36265 15.1703 6.24959 14.9269 6.03893C14.6838 5.82842 14.5271 5.53534 14.4872 5.2162C14.4701 5.04058 14.49 4.86331 14.5456 4.69584C14.6013 4.52816 14.6916 4.37404 14.8106 4.24344C14.9296 4.11284 15.0746 4.00868 15.2364 3.93767C15.3982 3.86667 15.5731 3.83042 15.7498 3.83126ZM17.7188 3.78126H15.75L14.4375 17.0342C14.4788 17.3659 14.6415 17.6705 14.8942 17.8892C15.1469 18.108 15.4717 18.2254 15.8058 18.2188H17.7188C18.1497 18.2188 18.5764 18.1339 18.9745 17.969C19.3726 17.8041 19.7343 17.5624 20.039 17.2577C20.3437 16.953 20.5854 16.5913 20.7503 16.1932C20.9152 15.7951 21 15.3684 21 14.9375V7.06251C21 6.63161 20.9152 6.20493 20.7503 5.80683C20.5854 5.40873 20.3437 5.04701 20.039 4.74232C19.7343 4.43763 19.3726 4.19593 18.9745 4.03103C18.5764 3.86614 18.1497 3.78126 17.7188 3.78126Z" fill="#FFFEFE" stroke="#22242A" stroke-width="0.1"/>
<path d="M9.60728 0.919778C9.84404 0.683013 10.1652 0.55 10.5 0.55C10.8348 0.55 11.156 0.683013 11.3927 0.919778C11.6295 1.15654 11.7625 1.47766 11.7625 1.8125V20.1875C11.7625 20.5223 11.6295 20.8435 11.3927 21.0802C11.156 21.317 10.8348 21.45 10.5 21.45C10.1652 21.45 9.84404 21.317 9.60728 21.0802C9.37051 20.8435 9.2375 20.5223 9.2375 20.1875V1.8125C9.2375 1.47766 9.37051 1.15654 9.60728 0.919778Z" fill="#FFFEFE" stroke="#22242A" stroke-width="0.1"/>
</svg>
