<svg width="14" height="13" viewBox="0 0 14 13" fill="none" xmlns="http://www.w3.org/2000/svg">
<path fill-rule="evenodd" clip-rule="evenodd" d="M6.77055 0C6.30075 0 5.91533 0.280905 5.66855 0.606968C5.42178 0.933032 5.25814 1.3188 5.10246 1.70895C4.79109 2.48926 4.47289 3.27173 4.17702 3.48669C3.88115 3.70165 3.03741 3.7632 2.19908 3.8182C1.77991 3.8457 1.36075 3.88224 0.974384 4.01617C0.588021 4.15011 0.202737 4.43029 0.0575607 4.87709C-0.0876152 5.3239 0.0604243 5.77487 0.294277 6.11032C0.528126 6.44577 0.845141 6.72199 1.16809 6.99061C1.81399 7.52787 2.46051 8.07408 2.57353 8.42189C2.68654 8.76971 2.48331 9.58987 2.27656 10.4042C2.17319 10.8113 2.07914 11.2199 2.08713 11.6288C2.09512 12.0376 2.24294 12.4912 2.62302 12.7674C3.0031 13.0435 3.47792 13.0432 3.86922 12.9245C4.26052 12.8057 4.6202 12.589 4.97548 12.3649C5.68604 11.9166 6.40483 11.4695 6.77055 11.4695C7.13626 11.4695 7.85498 11.9166 8.56553 12.3649C8.92081 12.589 9.28049 12.8057 9.67179 12.9245C10.0631 13.0432 10.5379 13.0435 10.918 12.7674C11.2981 12.4912 11.4438 12.0376 11.4518 11.6288C11.4597 11.2199 11.3678 10.8113 11.2644 10.4042C11.0577 9.58987 10.8545 8.76971 10.9675 8.42189C11.0805 8.07408 11.727 7.52787 12.3729 6.99061C12.6959 6.72199 13.0129 6.44577 13.2467 6.11032C13.4806 5.77487 13.6265 5.3239 13.4813 4.87709C13.3361 4.43029 12.953 4.15011 12.5666 4.01617C12.1803 3.88224 11.7611 3.8457 11.3419 3.8182C10.5036 3.7632 9.65986 3.70165 9.36399 3.48669C9.06812 3.27173 8.74992 2.48926 8.43855 1.70895C8.28287 1.3188 8.11709 0.933032 7.87032 0.606968C7.62355 0.280905 7.24035 0 6.77055 0Z" fill="url(#paint0_linear_372_1430)"/>
<path fill-rule="evenodd" clip-rule="evenodd" d="M6.7705 0C6.61123 0 6.46271 0.0342022 6.32495 0.0895843C6.59289 0.197566 6.8166 0.3914 6.97972 0.606928C7.22649 0.932991 7.39222 1.31875 7.5479 1.7089C7.85927 2.4892 8.17752 3.27171 8.47339 3.48667C8.76926 3.70163 9.61295 3.76312 10.4513 3.81813C10.8705 3.84562 11.2896 3.88218 11.676 4.01611C12.0623 4.15005 12.4455 4.43028 12.5907 4.87709C12.7359 5.32389 12.59 5.77486 12.3561 6.11031C12.1223 6.44576 11.8052 6.72195 11.4823 6.99058C10.8364 7.52783 10.1898 8.07406 10.0768 8.42187C9.9638 8.76969 10.167 9.58982 10.3738 10.4041C10.4772 10.8113 10.569 11.2199 10.5611 11.6287C10.5531 12.0376 10.4075 12.4912 10.0274 12.7673C9.92478 12.8419 9.81496 12.8948 9.70203 12.9322C10.0875 13.042 10.5475 13.0365 10.918 12.7673C11.2981 12.4912 11.4437 12.0376 11.4517 11.6287C11.4597 11.2199 11.3678 10.8113 11.2644 10.4041C11.0577 9.58982 10.8544 8.76969 10.9674 8.42187C11.0805 8.07406 11.727 7.52783 12.3729 6.99058C12.6958 6.72195 13.0129 6.44576 13.2467 6.11031C13.4806 5.77486 13.6265 5.32389 13.4813 4.87709C13.3362 4.43028 12.953 4.15005 12.5666 4.01611C12.1802 3.88218 11.7611 3.84562 11.3419 3.81813C10.5036 3.76312 9.65989 3.70163 9.36402 3.48667C9.06815 3.27171 8.74989 2.4892 8.43852 1.7089C8.28284 1.31875 8.11711 0.932991 7.87034 0.606928C7.62357 0.280865 7.2403 0 6.7705 0Z" fill="url(#paint1_linear_372_1430)"/>
<defs>
<linearGradient id="paint0_linear_372_1430" x1="6.76964" y1="0" x2="6.76964" y2="31.7296" gradientUnits="userSpaceOnUse">
<stop stop-color="#FFC107"/>
<stop offset="1" stop-color="white"/>
</linearGradient>
<linearGradient id="paint1_linear_372_1430" x1="9.93212" y1="0" x2="9.93212" y2="31.7278" gradientUnits="userSpaceOnUse">
<stop stop-color="#FFC107"/>
<stop offset="1" stop-color="white"/>
</linearGradient>
</defs>
</svg>
