<svg width="18" height="18" viewBox="0 0 18 18" fill="none" xmlns="http://www.w3.org/2000/svg">
<path fill-rule="evenodd" clip-rule="evenodd" d="M17.0625 3.75V14.25C17.0625 15.8033 15.8033 17.0625 14.25 17.0625H3.75C2.19675 17.0625 0.9375 15.8033 0.9375 14.25V3.75C0.9375 2.19675 2.19675 0.9375 3.75 0.9375H14.25C15.8033 0.9375 17.0625 2.19675 17.0625 3.75ZM4.125 10.6875H13.875C14.1855 10.6875 14.4375 10.4355 14.4375 10.125C14.4375 9.8145 14.1855 9.5625 13.875 9.5625H4.125C3.8145 9.5625 3.5625 9.8145 3.5625 10.125C3.5625 10.4355 3.8145 10.6875 4.125 10.6875ZM3.7275 6.2475L5.0775 7.5975C5.29725 7.81725 5.65275 7.81725 5.8725 7.5975L8.5725 4.8975C8.79225 4.6785 8.79225 4.3215 8.5725 4.1025C8.3535 3.88275 7.9965 3.88275 7.7775 4.1025L5.475 6.40425L4.5225 5.4525C4.3035 5.23275 3.9465 5.23275 3.7275 5.4525C3.50775 5.6715 3.50775 6.0285 3.7275 6.2475ZM4.125 14.0625H13.875C14.1855 14.0625 14.4375 13.8105 14.4375 13.5C14.4375 13.1895 14.1855 12.9375 13.875 12.9375H4.125C3.8145 12.9375 3.5625 13.1895 3.5625 13.5C3.5625 13.8105 3.8145 14.0625 4.125 14.0625ZM10.5 6.5625H13.875C14.1855 6.5625 14.4375 6.3105 14.4375 6C14.4375 5.6895 14.1855 5.4375 13.875 5.4375H10.5C10.1895 5.4375 9.9375 5.6895 9.9375 6C9.9375 6.3105 10.1895 6.5625 10.5 6.5625Z" fill="#3E3E3E"/>
</svg>
