<svg width="18" height="19" viewBox="0 0 18 19" fill="none" xmlns="http://www.w3.org/2000/svg">
<path d="M2.57143 3.07143V4.35714C2.57143 5.08036 1.96875 5.64286 1.28571 5.64286C0.5625 5.64286 0 5.08036 0 4.35714V2.42857C0 1.38393 0.84375 0.5 1.92857 0.5H16.0714C17.1161 0.5 18 1.38393 18 2.42857V4.35714C18 5.08036 17.3973 5.64286 16.7143 5.64286C15.9911 5.64286 15.4286 5.08036 15.4286 4.35714V3.07143H10.2857V15.9286H12.2143C12.8973 15.9286 13.5 16.5312 13.5 17.2143C13.5 17.9375 12.8973 18.5 12.2143 18.5H5.78571C5.0625 18.5 4.5 17.9375 4.5 17.2143C4.5 16.5312 5.0625 15.9286 5.78571 15.9286H7.71429V3.07143H2.57143Z" fill="white"/>
</svg>
