<svg width="12" height="20" viewBox="0 0 12 20" fill="none" xmlns="http://www.w3.org/2000/svg">
<path d="M10.0007 0H1.66675C0.747598 0 0.000976562 0.747481 0.000976562 1.66664V2.49994H11.6674V1.66664C11.6674 0.747481 10.9199 0 10.0007 0Z" fill="black"/>
<path d="M11.6664 4.16675H0V13.3332H11.6664V4.16675Z" fill="black"/>
<path d="M0 18.3332C0 19.2524 0.747481 19.9999 1.66664 19.9999H9.99975C10.9189 19.9999 11.6664 19.2524 11.6664 18.3332V15H0V18.3332ZM5.83321 16.6666C6.2932 16.6666 6.66651 17.0399 6.66651 17.4999C6.66651 17.9599 6.2932 18.3332 5.83321 18.3332C5.37322 18.3332 4.99991 17.9599 4.99991 17.4999C4.99991 17.0399 5.37322 16.6666 5.83321 16.6666Z" fill="black"/>
</svg>
