<svg width="21" height="21" viewBox="0 0 21 21" fill="none" xmlns="http://www.w3.org/2000/svg">
<path d="M17 1.5H4C2.34315 1.5 1 2.84688 1 4.50833V16.5417C1 18.2031 2.34315 19.55 4 19.55H17C18.6569 19.55 20 18.2031 20 16.5417V4.50833C20 2.84688 18.6569 1.5 17 1.5Z" stroke="#FFFEFE" stroke-width="2"/>
<g opacity="0.85">
<path d="M11.385 11.286C11.2754 11.1919 11.1874 11.0751 11.1271 10.9436C11.0668 10.8121 11.0355 10.6691 11.0355 10.5244C11.0355 10.3797 11.0668 10.2367 11.1271 10.1052C11.1874 9.97377 11.2754 9.85696 11.385 9.76282L15.848 5.92619C15.9933 5.80128 16.1712 5.72077 16.3607 5.69424C16.5502 5.6677 16.7433 5.69624 16.9172 5.77648C17.091 5.85671 17.2382 5.98527 17.3413 6.14689C17.4445 6.30852 17.4992 6.49642 17.499 6.6883V14.3616C17.499 14.5534 17.4441 14.7411 17.3409 14.9026C17.2377 15.0641 17.0905 15.1925 16.9167 15.2726C16.7429 15.3527 16.5499 15.3812 16.3605 15.3546C16.171 15.328 15.9932 15.2475 15.848 15.1227L11.385 11.286Z" fill="#FFFEFE"/>
<path d="M9.61303 9.76377C9.72264 9.85791 9.81063 9.97472 9.87096 10.1062C9.93129 10.2377 9.96252 10.3807 9.96252 10.5254C9.96252 10.6701 9.93129 10.8131 9.87096 10.9446C9.81063 11.076 9.72264 11.1928 9.61303 11.287L5.15003 15.1236C5.00478 15.2485 4.82684 15.329 4.63733 15.3556C4.44782 15.3821 4.2547 15.3536 4.08088 15.2733C3.90706 15.1931 3.75985 15.0645 3.65672 14.9029C3.55358 14.7413 3.49886 14.5534 3.49903 14.3615L3.49903 6.68825C3.49905 6.49645 3.55391 6.30868 3.65712 6.14721C3.76033 5.98573 3.90756 5.85733 4.08134 5.77721C4.25512 5.6971 4.44816 5.66865 4.63758 5.69522C4.827 5.72179 5.00485 5.80228 5.15003 5.92714L9.61303 9.76377Z" fill="#FFFEFE"/>
</g>
</svg>
