<svg width="20" height="20" viewBox="0 0 20 20" fill="none" xmlns="http://www.w3.org/2000/svg">
<path d="M19.6413 3.59375C20.1195 3.15625 20.1195 2.46875 19.6413 2.0625C19.1631 1.625 18.4116 1.625 17.9675 2.0625L12.3313 7.1875L14.0051 8.71875L19.6413 3.59375Z" fill="#A9A9A9"/>
<path d="M19.6413 16.4062L12.6388 10L10.965 8.4375L8.50555 6.1875C8.8813 5.59375 9.08625 4.90625 9.08625 4.25C9.12041 3.15625 8.67634 2.0625 7.75405 1.21875C6.90008 0.4375 5.77284 0 4.54312 0C3.31341 0 2.18617 0.4375 1.33219 1.21875C-0.444065 2.84375 -0.444065 5.46875 1.33219 7.09375C2.18617 7.875 3.31341 8.3125 4.54312 8.3125C5.36294 8.3125 6.11443 8.125 6.79761 7.75L9.25704 10L6.79761 12.25C6.11443 11.9062 5.36294 11.6875 4.54312 11.6875C3.34756 11.6875 2.18617 12.125 1.33219 12.9062C-0.444065 14.5312 -0.444065 17.1562 1.33219 18.7812C2.18617 19.5625 3.31341 20 4.54312 20C5.77284 20 6.90008 19.5625 7.75405 18.7812C9.22288 17.4375 9.462 15.375 8.47139 13.7812L10.9308 11.5312L17.9334 17.9375C18.1725 18.1562 18.4799 18.25 18.7874 18.25C19.0948 18.25 19.4022 18.1562 19.6413 17.9375C19.9146 17.6875 20.0171 17.375 19.9829 17.0312C19.9488 16.8125 19.8463 16.5938 19.6413 16.4062ZM6.08027 17.2188C5.26046 17.9688 3.85995 17.9688 3.04014 17.2188C2.18617 16.4375 2.18617 15.2187 3.04014 14.4375C3.45004 14.0625 3.99658 13.875 4.54312 13.875C5.08966 13.875 5.63621 14.0937 6.04611 14.4375C6.90008 15.2187 6.90008 16.4688 6.08027 17.2188ZM3.04014 5.53125C2.18617 4.75 2.18617 3.53125 3.04014 2.75C3.45004 2.375 3.99658 2.1875 4.54312 2.1875C5.08966 2.1875 5.63621 2.40625 6.04611 2.75C6.86592 3.53125 6.86592 4.75 6.04611 5.53125C5.26046 6.28125 3.85995 6.28125 3.04014 5.53125Z" fill="#A9A9A9"/>
</svg>
