<svg width="23" height="18" viewBox="0 0 23 18" fill="none" xmlns="http://www.w3.org/2000/svg">
<path d="M14.1787 0.823378C13.306 0.351084 12.289 0.397649 11.4655 0.953093L7.13169 3.87H3.79847C2.25652 3.87 1 5.14054 1 6.70377V11.2903C1 12.8536 2.25324 14.1274 3.79847 14.1274H7.12841L11.4623 17.0443C11.9117 17.347 12.4137 17.5 12.9222 17.5C13.3487 17.5 13.7785 17.3936 14.1754 17.1741C15.0481 16.6984 15.5697 15.8137 15.5697 14.8093V3.18817C15.573 2.18372 15.0514 1.299 14.1787 0.823378ZM2.31557 11.2903V6.70709C2.31557 5.87892 2.98156 5.20374 3.80175 5.20374H6.67239V12.8003H3.79847C2.98156 12.797 2.31557 12.1218 2.31557 11.2903ZM14.2607 14.8093C14.2607 15.3148 13.9983 15.7605 13.5586 16C13.119 16.2394 12.6072 16.2162 12.1906 15.9334L7.98468 13.103V4.89109L12.1906 2.06065C12.6072 1.78127 13.119 1.75799 13.5586 1.99413C13.9983 2.23361 14.2607 2.67929 14.2607 3.18485V14.8093Z" fill="#FFFEFE" stroke="#FFFEFE" stroke-width="0.5"/>
<path d="M19.8281 4.04613C19.5722 3.78671 19.1556 3.78671 18.8997 4.04613C18.6438 4.30556 18.6438 4.72797 18.8997 4.9874C20.0512 6.15483 20.6844 7.70475 20.6877 9.35778C20.691 11.0108 20.0578 12.5641 18.9062 13.7348C18.6504 13.9942 18.6504 14.4166 18.9062 14.6761C19.0342 14.8058 19.2015 14.8723 19.3688 14.8723C19.5361 14.8723 19.7035 14.8058 19.8314 14.6761C21.2323 13.2559 22.0033 11.3667 22 9.35778C21.9967 7.34554 21.2257 5.46302 19.8281 4.04613Z" fill="#FFFEFE" stroke="#FFFEFE" stroke-width="0.5"/>
<path d="M17.9056 6.63744C17.6498 6.37801 17.2331 6.37801 16.9772 6.63744C16.7213 6.89687 16.7213 7.31928 16.9772 7.5787C17.9483 8.5632 17.9516 10.163 16.9838 11.1442C16.7279 11.4036 16.7279 11.826 16.9838 12.0854C17.1117 12.2152 17.279 12.2817 17.4463 12.2817C17.6137 12.2817 17.781 12.2152 17.9122 12.0854C19.3918 10.5821 19.3885 8.1408 17.9056 6.63744Z" fill="#FFFEFE" stroke="#FFFEFE" stroke-width="0.5"/>
</svg>
