<svg width="16" height="16" viewBox="0 0 16 16" fill="none" xmlns="http://www.w3.org/2000/svg">
<path d="M16 8C15.9976 10.121 15.1508 12.1544 13.6454 13.6542C12.1399 15.154 10.0988 15.9976 7.96982 16C-2.65811 15.624 -2.6551 0.374 7.96982 0C10.0988 0.00238211 12.1399 0.846002 13.6454 2.34578C15.1508 3.84555 15.9976 5.879 16 8ZM8.9736 12C8.9736 11.7348 8.86784 11.4804 8.6796 11.2929C8.49135 11.1054 8.23604 11 7.96982 11C7.70361 11 7.44829 11.1054 7.26005 11.2929C7.07181 11.4804 6.96605 11.7348 6.96605 12C6.96605 12.2652 7.07181 12.5196 7.26005 12.7071C7.44829 12.8946 7.70361 13 7.96982 13C8.23604 13 8.49135 12.8946 8.6796 12.7071C8.86784 12.5196 8.9736 12.2652 8.9736 12ZM8.9736 4C8.9736 3.73478 8.86784 3.48043 8.6796 3.29289C8.49135 3.10536 8.23604 3 7.96982 3C7.70361 3 7.44829 3.10536 7.26005 3.29289C7.07181 3.48043 6.96605 3.73478 6.96605 4V8C6.96605 8.26522 7.07181 8.51957 7.26005 8.70711C7.44829 8.89464 7.70361 9 7.96982 9C8.23604 9 8.49135 8.89464 8.6796 8.70711C8.86784 8.51957 8.9736 8.26522 8.9736 8V4Z" fill="#979797"/>
</svg>
