<svg width="21" height="21" viewBox="0 0 21 21" fill="none" xmlns="http://www.w3.org/2000/svg">
<g clip-path="url(#clip0_404_261)">
<path d="M10.4956 0.0141602H10.4904C4.70481 0.0141602 0 4.72028 0 10.5072C0 12.8025 0.739758 14.93 1.99761 16.6574L0.689916 20.5556L4.72317 19.2662C6.38238 20.3654 8.36163 21.0002 10.4956 21.0002C16.2812 21.0002 20.986 16.2928 20.986 10.5072C20.986 4.72159 16.2812 0.0141602 10.4956 0.0141602Z" fill="#4CAF50"/>
<path d="M16.6012 14.8317C16.348 15.5465 15.3433 16.1394 14.5419 16.3125C13.9937 16.4293 13.2775 16.5224 10.8667 15.5229C7.78311 14.2454 5.7973 11.1119 5.64253 10.9086C5.49432 10.7053 4.39648 9.2494 4.39648 7.74365C4.39648 6.2379 5.16116 5.5047 5.4694 5.18991C5.72254 4.93152 6.14095 4.81348 6.54231 4.81348C6.67216 4.81348 6.78889 4.82003 6.89382 4.82528C7.20206 4.8384 7.35683 4.85676 7.56013 5.34337C7.81327 5.95328 8.42974 7.45903 8.50319 7.6138C8.57795 7.76857 8.65272 7.97843 8.54779 8.18174C8.44941 8.3916 8.36285 8.48472 8.20807 8.6631C8.0533 8.84149 7.9064 8.9779 7.75163 9.16939C7.60997 9.33597 7.44995 9.51435 7.62834 9.82258C7.80672 10.1243 8.42318 11.1303 9.33083 11.9382C10.5021 12.981 11.4517 13.3141 11.7914 13.4558C12.0446 13.5607 12.3463 13.5358 12.5312 13.3391C12.766 13.0859 13.0559 12.6662 13.351 12.253C13.5608 11.9566 13.8258 11.9199 14.1038 12.0248C14.3872 12.1232 15.8863 12.8642 16.1946 13.0177C16.5028 13.1725 16.7061 13.2459 16.7809 13.3758C16.8543 13.5056 16.8543 14.1155 16.6012 14.8317Z" fill="#FAFAFA"/>
</g>
<defs>
<clipPath id="clip0_404_261">
<rect width="20.986" height="20.986" fill="white" transform="translate(0 0.0141602)"/>
</clipPath>
</defs>
</svg>
